<svg xmlns="http://www.w3.org/2000/svg" width="496.072" height="495.352" viewBox="0 0 496.072 495.352">
  <g id="Grupo_30" data-name="Grupo 30" transform="translate(-1540 29)" opacity="0.5" style="mix-blend-mode: exclusion;isolation: isolate">
    <g id="_1ballMenor2" data-name="1ballMenor2" transform="translate(1540 -29)">
      <path id="Caminho_176" data-name="Caminho 176" d="M298.443,62.611a37.734,37.734,0,0,1-2.572,4.458c-3.772,4.629-11.316,4.8-15.6.686-4.458-4.286-3.943-11.316,1.029-15.773,4.286-3.772,11.144-2.915,14.745,1.886,1.029,1.372,1.714,2.743,2.572,4.115A41.773,41.773,0,0,0,298.443,62.611Z" transform="translate(197.458 34.434)" fill="#a409e3"/>
      <path id="Caminho_177" data-name="Caminho 177" d="M87.2,112.407c-12.516.171-26.4-8.572-26.4-25.546,0-15.773,11.83-27.089,26.4-27.26,14.23-.171,26.232,12.344,26.4,27.089C113.777,101.263,102.29,112.407,87.2,112.407Z" transform="translate(42.828 41.558)" fill="#a409e3"/>
      <path id="Caminho_178" data-name="Caminho 178" d="M86.206,251.307a26.523,26.523,0,0,1-26.4-26.4c-.343-14.745,11.144-26.232,26.06-26.4,15.087-.171,26.746,10.8,26.917,25.374C112.609,238.963,100.951,251.135,86.206,251.307Z" transform="translate(42.11 140.8)" fill="#a409e3"/>
      <path id="Caminho_179" data-name="Caminho 179" d="M198.3,225.6a25.984,25.984,0,0,1,25.374-26.4c14.916-.171,27.26,11.487,27.432,26.06.171,14.745-10.973,26.4-26.574,26.917C209.788,252.693,198.644,241.034,198.3,225.6Z" transform="translate(141.068 141.3)" fill="#a409e3"/>
      <path id="Caminho_180" data-name="Caminho 180" d="M150.867,249.635c-13.544.171-25.546-10.8-26.06-26.06C124.292,208.487,135.951,197,151.21,197c13.2,0,25.717,9.258,26.4,24.517C178.127,237.462,165.611,249.977,150.867,249.635Z" transform="translate(88.548 139.729)" fill="#a409e3"/>
      <path id="Caminho_181" data-name="Caminho 181" d="M115.635,158.175c-.171,15.43-11.316,26.574-26.4,26.4A26.787,26.787,0,0,1,63,157.832c.171-13.373,10.63-25.889,26.917-26.232C106.034,131.429,115.807,144.8,115.635,158.175Z" transform="translate(44.399 93.001)" fill="#a409e3"/>
      <path id="Caminho_182" data-name="Caminho 182" d="M182.406,94.489c0,14.573-11.316,25.717-26.232,25.717-14.745,0-26.4-11.144-26.574-25.374,0-14.916,12-27.432,26.232-27.432A26.711,26.711,0,0,1,182.406,94.489Z" transform="translate(91.984 47.132)" fill="#a409e3"/>
      <path id="Caminho_183" data-name="Caminho 183" d="M245.135,158.274c0,14.745-12,26.232-27.26,26.4-14.4,0-25.546-11.658-25.374-26.746,0-14.745,11.316-26.232,25.717-26.232A26.565,26.565,0,0,1,245.135,158.274Z" transform="translate(136.924 93.073)" fill="#a409e3"/>
      <path id="Caminho_184" data-name="Caminho 184" d="M225.361,60.9c15.087.171,26.917,12.173,26.746,26.746-.171,14.059-12,26.4-28.46,26.06-13.887-.343-24.517-12.173-24.346-27.26A25.936,25.936,0,0,1,225.361,60.9Z" transform="translate(141.782 42.487)" fill="#a409e3"/>
      <path id="Caminho_185" data-name="Caminho 185" d="M72.12,253.832c-.171,11.144-9.087,20.231-20.231,19.717-9.944-.514-19.717-8.058-19.888-21.26-.171-10.63,8.915-18.859,20.059-18.688S72.291,242.859,72.12,253.832Z" transform="translate(22.25 165.877)" fill="#a409e3"/>
      <path id="Caminho_186" data-name="Caminho 186" d="M275.055,54.546c-.343,11.487-9.43,19.717-21.26,19.2-8.915-.343-19.2-9.258-18.688-21.26A19.4,19.4,0,0,1,254.824,33.8C266.311,34.144,275.4,43.574,275.055,54.546Z" transform="translate(167.354 23.124)" fill="#a409e3"/>
      <path id="Caminho_187" data-name="Caminho 187" d="M133.776,245.675c.171,10.8-8.572,19.374-19.888,19.374-10.63,0-19.888-9.43-19.888-20.574A19.03,19.03,0,0,1,112.859,225.1C124.518,224.93,133.6,233.845,133.776,245.675Z" transform="translate(66.549 159.804)" fill="#a409e3"/>
      <path id="Caminho_188" data-name="Caminho 188" d="M53.145,71.348c-10.8,0-19.545-8.4-19.545-18.859C33.6,41,43.2,31.229,54.517,31.4c10.287,0,19.2,9.258,19.2,19.888C73.89,62.433,64.632,71.348,53.145,71.348Z" transform="translate(23.394 21.41)" fill="#a409e3"/>
      <path id="Caminho_189" data-name="Caminho 189" d="M245.575,172.6a19.845,19.845,0,0,1,19.2,20.231c-.171,10.973-9.43,19.888-20.745,19.888A19.134,19.134,0,0,1,225,193.518C225,181.688,234.259,172.43,245.575,172.6Z" transform="translate(160.144 122.294)" fill="#a409e3"/>
      <path id="Caminho_190" data-name="Caminho 190" d="M225.4,114.8c-.171-10.458,8.4-19.031,19.2-19.2a20.345,20.345,0,0,1,20.745,20.059c.171,10.287-8.744,19.888-18.688,19.888A20.715,20.715,0,0,1,225.4,114.8Z" transform="translate(160.43 67.279)" fill="#a409e3"/>
      <path id="Caminho_191" data-name="Caminho 191" d="M135.348,60.645c.171,11.316-8.744,20.4-20.4,20.574-10.63.171-19.2-8.23-19.545-19.2-.171-10.973,8.915-20.745,19.888-20.917C126.947,41.1,135.691,50.187,135.348,60.645Z" transform="translate(67.548 28.341)" fill="#a409e3"/>
      <path id="Caminho_192" data-name="Caminho 192" d="M210.548,247.216c0,10.973-9.087,20.4-19.888,20.4S170.429,258.7,170.6,248.074A20.894,20.894,0,0,1,191.346,227.5C201.976,227.5,210.548,236.072,210.548,247.216Z" transform="translate(121.277 161.52)" fill="#a409e3"/>
      <path id="Caminho_193" data-name="Caminho 193" d="M212.123,60.321c-.171,10.973-8.915,19.545-19.545,19.2-11.658-.343-20.917-9.944-20.574-21.26A19.892,19.892,0,0,1,192.235,39.4,20.458,20.458,0,0,1,212.123,60.321Z" transform="translate(122.274 27.123)" fill="#a409e3"/>
      <path id="Caminho_194" data-name="Caminho 194" d="M78.777,191.517a18.773,18.773,0,0,1-18.859,19.2C48.6,210.719,39,201.975,39,191c-.171-11.144,8.572-20.4,19.374-20.4A20.67,20.67,0,0,1,78.777,191.517Z" transform="translate(27.251 120.866)" fill="#a409e3"/>
      <path id="Caminho_195" data-name="Caminho 195" d="M273.285,253.435c.514,11.487-8.572,20.917-20.917,21.088-9.258.171-18.345-7.029-18.859-19.031-.514-10.973,8.4-20.574,19.545-21.088C263.512,234.061,273.628,243.319,273.285,253.435Z" transform="translate(166.21 166.446)" fill="#a409e3"/>
      <path id="Caminho_196" data-name="Caminho 196" d="M59.875,94.5c10.973.171,19.545,8.572,19.374,19.2-.171,11.658-9.258,20.917-20.745,20.745a19.8,19.8,0,0,1-19.2-20.059A20.381,20.381,0,0,1,59.875,94.5Z" transform="translate(27.466 66.493)" fill="#a409e3"/>
      <path id="Caminho_197" data-name="Caminho 197" d="M19.4,82.8c0-7.372,5.829-13.03,13.373-13.2,6.686,0,12.516,6,12.516,13.03S39.459,96,32.773,95.832C26.429,95.66,19.571,91.2,19.4,82.8Z" transform="translate(13.248 48.704)" fill="#a409e3"/>
      <path id="Caminho_198" data-name="Caminho 198" d="M31.532,229.162A13.035,13.035,0,0,1,18.5,215.617c0-6.858,6.344-12.687,13.716-12.516,6.858.172,12.516,6.344,12.344,13.716A13.254,13.254,0,0,1,31.532,229.162Z" transform="translate(12.604 144.085)" fill="#a409e3"/>
      <path id="Caminho_199" data-name="Caminho 199" d="M218.2,19.5a13.149,13.149,0,0,1,12.859,13.716c-.172,7.029-6.172,12.344-13.544,12.344-6.686-.171-12.687-6.344-12.516-13.03A13.4,13.4,0,0,1,218.2,19.5Z" transform="translate(145.854 12.908)" fill="#a409e3"/>
      <path id="Caminho_200" data-name="Caminho 200" d="M83.23,253.7c7.029,0,13.03,5.829,13.03,12.687A13.21,13.21,0,0,1,83.23,279.76c-7.2,0-12.859-5.829-13.03-13.373C70.2,259.529,76.029,253.871,83.23,253.7Z" transform="translate(49.544 180.24)" fill="#a409e3"/>
      <path id="Caminho_201" data-name="Caminho 201" d="M216.032,282.117a13.061,13.061,0,0,1-13.03-13.2c0-7.029,6-12.516,13.2-12.516a12.661,12.661,0,0,1,12.859,12.516A13.062,13.062,0,0,1,216.032,282.117Z" transform="translate(144.425 182.169)" fill="#a409e3"/>
      <path id="Caminho_202" data-name="Caminho 202" d="M72.314,33.829A13.011,13.011,0,0,1,84.486,20.114c7.2-.514,13.2,5.143,13.716,12.516.514,6.858-5.143,12.859-12.173,13.544C79.857,46.688,72.142,40.859,72.314,33.829Z" transform="translate(51.031 13.324)" fill="#a409e3"/>
      <path id="Caminho_203" data-name="Caminho 203" d="M280.495,85.6a13.149,13.149,0,0,1-13.716,12.859c-6.686-.171-12.516-6.515-12.173-13.373A13.064,13.064,0,0,1,267.636,72.4,12.811,12.811,0,0,1,280.495,85.6Z" transform="translate(181.288 50.703)" fill="#a409e3"/>
      <path id="Caminho_204" data-name="Caminho 204" d="M266.665,204.4c7.2.171,13.03,6.172,12.859,13.03a13.137,13.137,0,0,1-13.544,13.03c-6.858-.171-12.516-6.515-12.173-13.887C253.806,210.059,259.807,204.23,266.665,204.4Z" transform="translate(180.716 145.014)" fill="#a409e3"/>
      <path id="Caminho_205" data-name="Caminho 205" d="M13.2,20.073A12.149,12.149,0,0,1,25.546,7.9a13.358,13.358,0,0,1,13.03,13.544A12.152,12.152,0,0,1,26.4,33.274,12.891,12.891,0,0,1,13.2,20.073Z" transform="translate(8.817 4.62)" fill="#a409e3"/>
      <path id="Caminho_206" data-name="Caminho 206" d="M36.274,276.9c0,6.515-4.115,13.544-13.2,13.544-7.715,0-12.173-6.172-12.173-12.687,0-6.858,6-12.687,13.2-12.859A12.184,12.184,0,0,1,36.274,276.9Z" transform="translate(7.175 188.242)" fill="#a409e3"/>
      <path id="Caminho_207" data-name="Caminho 207" d="M292.547,25.646a13.466,13.466,0,0,1-13.373,13.2c-6.686-.171-12.344-6-12.173-12.516.171-7.2,6.172-13.2,13.2-13.03A12.186,12.186,0,0,1,292.547,25.646Z" transform="translate(190.152 8.477)" fill="#a409e3"/>
      <path id="Caminho_208" data-name="Caminho 208" d="M290.276,277.475a12.083,12.083,0,0,1-12.516,12.173c-7.372-.171-13.03-6.172-12.859-13.887A12.235,12.235,0,0,1,277.074,264.1,13.352,13.352,0,0,1,290.276,277.475Z" transform="translate(188.652 187.669)" fill="#a409e3"/>
      <path id="Caminho_209" data-name="Caminho 209" d="M286.33,251.588a10.544,10.544,0,1,1,0-21.088,10.5,10.5,0,0,1,10.63,10.287A10.612,10.612,0,0,1,286.33,251.588Z" transform="translate(196.37 163.664)" fill="#a409e3"/>
      <path id="Caminho_210" data-name="Caminho 210" d="M57.973,296.988A10.983,10.983,0,0,1,47,286.358,10.8,10.8,0,0,1,57.8,275.9a10.546,10.546,0,0,1,.171,21.088Z" transform="translate(32.968 196.101)" fill="#a409e3"/>
      <path id="Caminho_211" data-name="Caminho 211" d="M251.76,12.7c0,5.486-5.143,10.287-10.63,10.287-5.658-.171-10.63-4.8-10.63-10.115A10.939,10.939,0,0,1,241.473,1.9C247.13,1.73,251.76,6.7,251.76,12.7Z" transform="translate(164.075 0.332)" fill="#a409e3"/>
      <path id="Caminho_212" data-name="Caminho 212" d="M.431,238.731c-.514-6.858,5.658-10.458,10.458-10.63,5.486-.171,10.458,5.315,10.458,10.973-.171,5.486-4.972,10.63-10.458,10.458C6.431,249.361-.427,245.761.431,238.731Z" transform="translate(-0.357 161.947)" fill="#a409e3"/>
      <path id="Caminho_213" data-name="Caminho 213" d="M12.332,68.09c-6-.171-10.8-4.8-10.63-10.63A10.724,10.724,0,0,1,12.675,47a10.549,10.549,0,0,1-.343,21.088Z" transform="translate(0.6 32.555)" fill="#a409e3"/>
      <path id="Caminho_214" data-name="Caminho 214" d="M70.688,10.889A10.612,10.612,0,0,1,60.23,21.347,10.915,10.915,0,0,1,49.6,10.717C49.6,4.888,54.4.6,61.087.6,66.4.431,70.688,4.888,70.688,10.889Z" transform="translate(34.826 -0.597)" fill="#a409e3"/>
      <path id="Caminho_215" data-name="Caminho 215" d="M238.8,298.147c-7.544.343-10.8-5.658-10.8-10.8,0-5.486,5.143-10.115,10.63-9.944a10.5,10.5,0,0,1,10.458,10.458C249.26,293.347,244.8,298.661,238.8,298.147Z" transform="translate(162.289 197.171)" fill="#a409e3"/>
    </g>
    <g id="bolasmeio" transform="translate(1696.018 121.874)">
      <path id="Caminho_233" data-name="Caminho 233" d="M450.741,358.236c-.514,2.572-.857,4.972-1.372,7.544-2.743,12.859-10.63,21.088-22.974,25.374-8.572,2.915-17.145,2.743-25.031-1.372-12.516-6.515-19.2-17.145-18.859-31.375.514-15.259,11.83-30.518,29.146-32.747,13.03-1.714,24.174,2.229,32.232,13.03a29.106,29.106,0,0,1,5.486,14.4,22.187,22.187,0,0,0,1.372,4.458Z" transform="translate(-255.047 -325.275)" fill="#5909e3"/>
      <path id="Caminho_234" data-name="Caminho 234" d="M398.6,441.5h0Z" transform="translate(-243.539 -242.235)" fill="#5909e3"/>
      <path id="Caminho_235" data-name="Caminho 235" d="M384.3,359.508a39.861,39.861,0,0,1,40.976,43.2c-1.372,19.888-15.945,37.2-40.462,37.547-23.66.343-40.29-21.774-40.119-42C344.872,377,362.7,358.822,384.3,359.508Z" transform="translate(-282.05 -300.83)" fill="#5909e3"/>
      <path id="Caminho_236" data-name="Caminho 236" d="M345.561,394.965c-15.43,1.029-34.461-14.23-34.461-34.975A33.631,33.631,0,0,1,345.047,326.9c19.031,0,33.775,15.087,33.947,34.8C379.165,380.392,363.22,395.308,345.561,394.965Z" transform="translate(-306.056 -324.114)" fill="#5909e3"/>
      <path id="Caminho_237" data-name="Caminho 237" d="M308.23,429.371c-1.2-15.6,12.687-30.518,27.946-33.09,17.488-2.915,34.975,9.087,38.4,27.089,3.772,19.2-10.458,38.061-30.175,39.947-16.63,1.543-31.718-10.287-35.147-24.174C308.573,436.057,308.573,432.629,308.23,429.371Z" transform="translate(-308.158 -274.854)" fill="#5909e3"/>
      <path id="Caminho_238" data-name="Caminho 238" d="M417.111,468.405c-20.231,1.886-33.261-15.6-34.8-28.8a33.925,33.925,0,0,1,32.4-37.89c17.145-.686,32.4,10.63,34.461,30,1.029,9.773-1.372,18.516-8.058,26.06C434.6,464.977,426.54,469.434,417.111,468.405Z" transform="translate(-255.363 -270.683)" fill="#5909e3"/>
    </g>
  </g>
</svg>
