<svg xmlns="http://www.w3.org/2000/svg" width="37.633" height="37.578" viewBox="0 0 37.633 37.578">
  <g id="Grupo_2" data-name="Grupo 2" transform="translate(-233.657 -154)">
    <g id="_1ballMenor2" data-name="1ballMenor2" transform="translate(233.657 154)">
      <path id="Caminho_176" data-name="Caminho 176" d="M278.833,50.612a2.864,2.864,0,0,1-.2.338.829.829,0,0,1-1.184.052.805.805,0,0,1,.078-1.2.772.772,0,0,1,1.119.143c.078.1.13.208.2.312A3.171,3.171,0,0,0,278.833,50.612Z" transform="translate(-241.214 -43.25)" fill="#f951ff"/>
      <path id="Caminho_177" data-name="Caminho 177" d="M62.8,63.605a1.918,1.918,0,0,1-2-1.938,2.011,2.011,0,0,1,2-2.068,2.058,2.058,0,0,1,2,2.055A1.929,1.929,0,0,1,62.8,63.605Z" transform="translate(-52.939 -51.925)" fill="#f951ff"/>
      <path id="Caminho_178" data-name="Caminho 178" d="M61.8,202.5a2.012,2.012,0,0,1-2-2,2.01,2.01,0,0,1,4.019-.078A2.066,2.066,0,0,1,61.8,202.5Z" transform="translate(-52.065 -172.759)" fill="#f951ff"/>
      <path id="Caminho_179" data-name="Caminho 179" d="M198.3,201.2a1.971,1.971,0,0,1,1.925-2,2.033,2.033,0,0,1,2.081,1.977,2.006,2.006,0,0,1-2.016,2.042A1.948,1.948,0,0,1,198.3,201.2Z" transform="translate(-172.554 -173.368)" fill="#f951ff"/>
      <path id="Caminho_180" data-name="Caminho 180" d="M126.769,200.993a1.991,1.991,0,0,1-1.977-1.977,2.006,2.006,0,0,1,4.006-.156A2.025,2.025,0,0,1,126.769,200.993Z" transform="translate(-108.606 -171.455)" fill="#f951ff"/>
      <path id="Caminho_181" data-name="Caminho 181" d="M66.992,133.615a1.941,1.941,0,0,1-2,2,2.01,2.01,0,1,1,.052-4.019A1.936,1.936,0,0,1,66.992,133.615Z" transform="translate(-54.852 -114.561)" fill="#f951ff"/>
      <path id="Caminho_182" data-name="Caminho 182" d="M133.606,69.455a1.933,1.933,0,0,1-1.99,1.951,1.966,1.966,0,0,1-2.016-1.925,2.061,2.061,0,0,1,1.99-2.081A2.026,2.026,0,0,1,133.606,69.455Z" transform="translate(-112.79 -58.711)" fill="#f951ff"/>
      <path id="Caminho_183" data-name="Caminho 183" d="M196.492,133.716a2.027,2.027,0,0,1-2.068,2,2.011,2.011,0,0,1,.026-4.019A2.015,2.015,0,0,1,196.492,133.716Z" transform="translate(-167.508 -114.648)" fill="#f951ff"/>
      <path id="Caminho_184" data-name="Caminho 184" d="M201.276,60.9a2.023,2.023,0,0,1,2.029,2.029,2.047,2.047,0,0,1-2.159,1.977,2.006,2.006,0,0,1,.13-4.006Z" transform="translate(-173.424 -53.056)" fill="#f951ff"/>
      <path id="Caminho_185" data-name="Caminho 185" d="M35.042,235.133a1.488,1.488,0,0,1-1.535,1.5A1.577,1.577,0,0,1,32,235.016a1.439,1.439,0,0,1,1.522-1.418A1.535,1.535,0,0,1,35.042,235.133Z" transform="translate(-27.883 -203.294)" fill="#f951ff"/>
      <path id="Caminho_186" data-name="Caminho 186" d="M238.121,35.372a1.486,1.486,0,0,1-1.613,1.457,1.577,1.577,0,0,1-1.418-1.613,1.472,1.472,0,0,1,1.5-1.418A1.562,1.562,0,0,1,238.121,35.372Z" transform="translate(-204.559 -29.48)" fill="#f951ff"/>
      <path id="Caminho_187" data-name="Caminho 187" d="M97.017,226.66a1.461,1.461,0,0,1-1.509,1.47A1.564,1.564,0,0,1,94,226.568a1.444,1.444,0,0,1,1.431-1.47A1.547,1.547,0,0,1,97.017,226.66Z" transform="translate(-81.821 -195.899)" fill="#f951ff"/>
      <path id="Caminho_188" data-name="Caminho 188" d="M35.083,34.429A1.455,1.455,0,0,1,33.6,33a1.6,1.6,0,0,1,1.587-1.6,1.516,1.516,0,0,1-.1,3.03Z" transform="translate(-29.276 -27.393)" fill="#f951ff"/>
      <path id="Caminho_189" data-name="Caminho 189" d="M226.559,172.6a1.505,1.505,0,0,1,1.457,1.535,1.558,1.558,0,0,1-1.574,1.509A1.452,1.452,0,0,1,225,174.186,1.555,1.555,0,0,1,226.559,172.6Z" transform="translate(-195.781 -150.228)" fill="#f951ff"/>
      <path id="Caminho_190" data-name="Caminho 190" d="M225.4,97.055a1.454,1.454,0,0,1,1.457-1.457,1.543,1.543,0,0,1,1.574,1.522,1.511,1.511,0,0,1-1.418,1.509A1.571,1.571,0,0,1,225.4,97.055Z" transform="translate(-196.129 -83.243)" fill="#f951ff"/>
      <path id="Caminho_191" data-name="Caminho 191" d="M98.429,42.583a1.538,1.538,0,0,1-1.548,1.561A1.468,1.468,0,0,1,95.4,42.687,1.578,1.578,0,0,1,96.908,41.1,1.475,1.475,0,0,1,98.429,42.583Z" transform="translate(-83.037 -35.832)" fill="#f951ff"/>
      <path id="Caminho_192" data-name="Caminho 192" d="M173.629,229a1.552,1.552,0,0,1-1.509,1.548,1.516,1.516,0,0,1-1.522-1.483,1.585,1.585,0,0,1,1.574-1.561A1.463,1.463,0,0,1,173.629,229Z" transform="translate(-148.457 -197.989)" fill="#f951ff"/>
      <path id="Caminho_193" data-name="Caminho 193" d="M175.039,40.982a1.452,1.452,0,0,1-1.483,1.457A1.593,1.593,0,0,1,172,40.826,1.509,1.509,0,0,1,173.53,39.4,1.552,1.552,0,0,1,175.039,40.982Z" transform="translate(-149.671 -34.348)" fill="#f951ff"/>
      <path id="Caminho_194" data-name="Caminho 194" d="M42.016,172.187a1.424,1.424,0,0,1-1.431,1.457,1.551,1.551,0,0,1-1.587-1.5,1.5,1.5,0,0,1,1.47-1.548A1.568,1.568,0,0,1,42.016,172.187Z" transform="translate(-33.973 -148.489)" fill="#f951ff"/>
      <path id="Caminho_195" data-name="Caminho 195" d="M236.507,235.839a1.547,1.547,0,0,1-1.587,1.6A1.434,1.434,0,0,1,233.489,236a1.558,1.558,0,0,1,1.483-1.6A1.512,1.512,0,0,1,236.507,235.839Z" transform="translate(-203.166 -203.986)" fill="#f951ff"/>
      <path id="Caminho_196" data-name="Caminho 196" d="M40.859,94.5a1.449,1.449,0,0,1,1.47,1.457,1.563,1.563,0,0,1-1.574,1.574A1.5,1.5,0,0,1,39.3,96.007,1.546,1.546,0,0,1,40.859,94.5Z" transform="translate(-34.234 -82.286)" fill="#f951ff"/>
      <path id="Caminho_197" data-name="Caminho 197" d="M19.4,70.6a1,1,0,0,1,1.014-1,1,1,0,0,1,0,1.99A1.007,1.007,0,0,1,19.4,70.6Z" transform="translate(-16.923 -60.625)" fill="#f951ff"/>
      <path id="Caminho_198" data-name="Caminho 198" d="M19.487,205.075a.989.989,0,0,1-.988-1.027.99.99,0,1,1,.988,1.027Z" transform="translate(-16.138 -176.76)" fill="#f951ff"/>
      <path id="Caminho_199" data-name="Caminho 199" d="M206,19.5a.989.989,0,1,1-1,.988A1.016,1.016,0,0,1,206,19.5Z" transform="translate(-178.382 -17.041)" fill="#f951ff"/>
      <path id="Caminho_200" data-name="Caminho 200" d="M71.188,253.7a.992.992,0,0,1,.988.962.989.989,0,1,1-1.977,0A.992.992,0,0,1,71.188,253.7Z" transform="translate(-61.116 -220.781)" fill="#f951ff"/>
      <path id="Caminho_201" data-name="Caminho 201" d="M203.987,258.351a.991.991,0,0,1-.988-1,.975.975,0,0,1,1-.949.96.96,0,0,1,.975.949A.991.991,0,0,1,203.987,258.351Z" transform="translate(-176.642 -223.13)" fill="#f951ff"/>
      <path id="Caminho_202" data-name="Caminho 202" d="M72.284,21.124a.983.983,0,1,1,1.964-.091,1,1,0,0,1-.923,1.027A1.014,1.014,0,0,1,72.284,21.124Z" transform="translate(-62.926 -17.547)" fill="#f951ff"/>
      <path id="Caminho_203" data-name="Caminho 203" d="M256.557,73.4a.982.982,0,1,1-.975-1A.972.972,0,0,1,256.557,73.4Z" transform="translate(-221.525 -63.059)" fill="#f951ff"/>
      <path id="Caminho_204" data-name="Caminho 204" d="M254.768,204.4a.99.99,0,1,1-.975.923A.964.964,0,0,1,254.768,204.4Z" transform="translate(-220.829 -177.891)" fill="#f951ff"/>
      <path id="Caminho_205" data-name="Caminho 205" d="M13.2,8.823a.922.922,0,0,1,.936-.923,1.013,1.013,0,0,1,.988,1.027.922.922,0,0,1-.923.9A.978.978,0,0,1,13.2,8.823Z" transform="translate(-11.528 -6.95)" fill="#f951ff"/>
      <path id="Caminho_206" data-name="Caminho 206" d="M12.825,265.81a.973.973,0,0,1-1,1.027.919.919,0,0,1-.923-.962,1.014,1.014,0,0,1,1-.975A.924.924,0,0,1,12.825,265.81Z" transform="translate(-9.529 -230.524)" fill="#f951ff"/>
      <path id="Caminho_207" data-name="Caminho 207" d="M268.936,14.235a1.022,1.022,0,0,1-1.014,1,.958.958,0,0,1-.923-.949,1.008,1.008,0,0,1,1-.988A.924.924,0,0,1,268.936,14.235Z" transform="translate(-232.318 -11.646)" fill="#f951ff"/>
      <path id="Caminho_208" data-name="Caminho 208" d="M266.823,265.112a.917.917,0,0,1-.949.923,1,1,0,0,1-.975-1.053.928.928,0,0,1,.923-.884A1.013,1.013,0,0,1,266.823,265.112Z" transform="translate(-230.491 -229.826)" fill="#f951ff"/>
      <path id="Caminho_209" data-name="Caminho 209" d="M276.506,232.1a.8.8,0,1,1,0-1.6.8.8,0,0,1,.806.78A.805.805,0,0,1,276.506,232.1Z" transform="translate(-239.888 -200.598)" fill="#f951ff"/>
      <path id="Caminho_210" data-name="Caminho 210" d="M47.832,277.5a.833.833,0,0,1-.832-.806.819.819,0,0,1,.819-.793.8.8,0,0,1,.013,1.6Z" transform="translate(-40.934 -240.094)" fill="#f951ff"/>
      <path id="Caminho_211" data-name="Caminho 211" d="M232.113,2.717a.807.807,0,0,1-1.613.013.83.83,0,0,1,.832-.832A.792.792,0,0,1,232.113,2.717Z" transform="translate(-200.567 -1.728)" fill="#f951ff"/>
      <path id="Caminho_212" data-name="Caminho 212" d="M.363,228.9a.783.783,0,0,1,.793-.806.84.84,0,0,1,.793.832.823.823,0,0,1-.793.793A.786.786,0,0,1,.363,228.9Z" transform="translate(-0.357 -198.508)" fill="#f951ff"/>
      <path id="Caminho_213" data-name="Caminho 213" d="M2.5,48.6a.8.8,0,0,1-.806-.806A.814.814,0,0,1,2.53,47,.8.8,0,0,1,2.5,48.6Z" transform="translate(-1.523 -40.962)" fill="#f951ff"/>
      <path id="Caminho_214" data-name="Caminho 214" d="M51.2,1.378a.805.805,0,0,1-.793.793.828.828,0,0,1-.806-.806A.8.8,0,0,1,50.471.6.733.733,0,0,1,51.2,1.378Z" transform="translate(-43.195 -0.597)" fill="#f951ff"/>
      <path id="Caminho_215" data-name="Caminho 215" d="M228.819,278.971a.769.769,0,0,1-.819-.819.8.8,0,0,1,1.6.039A.744.744,0,0,1,228.819,278.971Z" transform="translate(-198.392 -241.396)" fill="#f951ff"/>
    </g>
    <g id="bolasmeio" transform="translate(245.493 165.446)">
      <path id="Caminho_233" data-name="Caminho 233" d="M387.67,327.776c-.039.2-.065.377-.1.572a2.485,2.485,0,0,1-1.743,1.925,2.352,2.352,0,0,1-1.9-.1,2.473,2.473,0,0,1-1.431-2.38A2.592,2.592,0,0,1,384.7,325.3a2.461,2.461,0,0,1,2.445.988,2.208,2.208,0,0,1,.416,1.092,1.683,1.683,0,0,0,.1.338Z" transform="translate(-372.825 -325.275)" fill="#ad95ff"/>
      <path id="Caminho_234" data-name="Caminho 234" d="M398.6,441.5h0Z" transform="translate(-386.837 -426.384)" fill="#ad95ff"/>
      <path id="Caminho_235" data-name="Caminho 235" d="M347.7,359.49a3.024,3.024,0,0,1,3.108,3.278,2.985,2.985,0,0,1-3.069,2.848,3.16,3.16,0,0,1-3.043-3.187A2.967,2.967,0,0,1,347.7,359.49Z" transform="translate(-339.947 -355.039)" fill="#ad95ff"/>
      <path id="Caminho_236" data-name="Caminho 236" d="M313.714,332.063a2.685,2.685,0,0,1-2.614-2.653,2.551,2.551,0,0,1,2.575-2.51,2.58,2.58,0,0,1,2.575,2.64A2.528,2.528,0,0,1,313.714,332.063Z" transform="translate(-310.717 -326.689)" fill="#ad95ff"/>
      <path id="Caminho_237" data-name="Caminho 237" d="M308.163,398.389a2.537,2.537,0,0,1,5.033-.455,2.551,2.551,0,0,1-4.955,1.2A6.817,6.817,0,0,1,308.163,398.389Z" transform="translate(-308.158 -386.667)" fill="#ad95ff"/>
      <path id="Caminho_238" data-name="Caminho 238" d="M384.71,406.744a2.517,2.517,0,0,1-2.64-2.185,2.574,2.574,0,0,1,2.458-2.874,2.57,2.57,0,0,1,2,4.253A2.125,2.125,0,0,1,384.71,406.744Z" transform="translate(-372.44 -391.745)" fill="#ad95ff"/>
    </g>
  </g>
</svg>
