<svg xmlns="http://www.w3.org/2000/svg" width="400.13" height="46.37" viewBox="0 0 400.13 46.37">
  <g id="Grupo_128" data-name="Grupo 128" transform="translate(-285.74 -5883)">
    <g id="_1x7tecnologia-curves" data-name="1x7tecnologia-curves" transform="translate(357.055 5895.34)">
      <path id="Caminho_216" data-name="Caminho 216" d="M617.267,22.74c.434-.087.912-.13,1.346-.217v-.087c-.434-.043-.869-.087-1.3-.087a9.706,9.706,0,0,1-6.3-3.257,9.5,9.5,0,0,1-2.649-6.3,11.049,11.049,0,0,1,.782-5.3,10.661,10.661,0,0,1,8.815-6.3A11.911,11.911,0,0,1,625,2.157a12.942,12.942,0,0,1,4.429,3.517c.087.087.13.391.043.434-.782.651-1.563,1.259-2.3,1.824a20.4,20.4,0,0,0-1.911-1.954,7.978,7.978,0,0,0-5.6-1.867,8.353,8.353,0,0,0-6.166,2.519,7.392,7.392,0,0,0-2.041,6.123,6.892,6.892,0,0,0,3.431,5.515,8.921,8.921,0,0,0,9.6-.043,6.332,6.332,0,0,0,2.605-3.387c.217-.478-.13-.478-.434-.478-2.3,0-4.6,0-6.948.043-.565,0-.738-.174-.695-.695a14.641,14.641,0,0,0,0-1.954c0-.347.13-.478.434-.434,3.778,0,7.6.043,11.377.087.043,0,.043.043.174.087a11.308,11.308,0,0,1-2.649,7.86,9.194,9.194,0,0,1-7.643,3.17c0,.043.043.13.043.174.565.087,1.173.13,1.737.217C620.741,22.74,619,22.74,617.267,22.74Z" transform="translate(-344.731 -1.009)" fill="#fff"/>
      <path id="Caminho_217" data-name="Caminho 217" d="M554.154,22.305a11.866,11.866,0,0,1-6.731-1.867,9.939,9.939,0,0,1-4.516-7.035,10.2,10.2,0,0,1,2.91-9.25,10.533,10.533,0,0,1,6.036-3,12.247,12.247,0,0,1,7.556,1,9.964,9.964,0,0,1,5.689,7.86,10.85,10.85,0,0,1-1.867,7.99,9.781,9.781,0,0,1-7.078,4.125C555.457,22.218,554.805,22.262,554.154,22.305Zm-.217-3.083c4.6-.13,7.773-3.127,7.773-7.382.044-4.69-3.04-7.73-7.773-7.773a7.333,7.333,0,0,0-7.773,7.339C546.077,15.878,549.334,19.135,553.937,19.222Z" transform="translate(-307.63 -0.965)" fill="#fff"/>
      <path id="Caminho_218" data-name="Caminho 218" d="M440.72,22.3a11.076,11.076,0,0,1-8.642-3.735,9.822,9.822,0,0,1-2.475-5.645,10.266,10.266,0,0,1,2.258-7.99,10.452,10.452,0,0,1,6.9-3.821,12.831,12.831,0,0,1,6.644.695,10.061,10.061,0,0,1,6.34,7.686,10.621,10.621,0,0,1-1.172,7.556,9.874,9.874,0,0,1-7.817,5.081C442.11,22.211,441.415,22.255,440.72,22.3Zm-7.686-10.683a7.411,7.411,0,0,0,7.773,7.6,7.313,7.313,0,0,0,7.686-7.078c.217-5.124-3.431-7.99-7.73-8.034C436.291,4.059,432.774,7.577,433.034,11.615Z" transform="translate(-243.57 -0.958)" fill="#fff"/>
      <path id="Caminho_219" data-name="Caminho 219" d="M715.873,14.784c-1.824-3.387-3.561-6.644-5.385-10.031-.217.391-.391.651-.521.912-1.086,2.041-2.171,4.039-3.257,6.08-.087.13-.261.3-.391.3-1.172.043-2.3,0-3.561,0a9.756,9.756,0,0,1,.478-.955c1.563-2.953,3.17-5.906,4.733-8.859a.764.764,0,0,1,.738-.434c1.173,0,2.388,0,3.561.043a.8.8,0,0,1,.608.347c.912,1.607,1.78,3.213,2.649,4.82,1.78,3.3,3.561,6.557,5.341,9.857l2.736,5.081a3.383,3.383,0,0,0,.217.521h-3.387a.67.67,0,0,1-.695-.434c-.608-1.216-1.216-2.388-1.781-3.561a1.019,1.019,0,0,0-1.086-.608H704.1a.937.937,0,0,0-1,.565c-.564,1.259-1.216,2.432-1.867,3.648-.087.13-.3.347-.434.347-1.129.043-2.258,0-3.431,0-.043,0-.087-.043-.174-.087.044-.13.087-.217.13-.347,1.216-2.3,2.475-4.56,3.691-6.861a.849.849,0,0,1,.869-.521h7.469c1.911,0,3.865.043,5.776.087A1.6,1.6,0,0,0,715.873,14.784Z" transform="translate(-395.005 -1.434)" fill="#fff"/>
      <path id="Caminho_220" data-name="Caminho 220" d="M315.237,7.037c-.955.347-1.824.695-2.779.955a.876.876,0,0,1-.608-.217,10.587,10.587,0,0,0-5.515-2.649A11.828,11.828,0,0,0,297.606,6.6a6.549,6.549,0,0,0-3.213,5.3,6.3,6.3,0,0,0,2.388,5.472,9.559,9.559,0,0,0,4.994,2.128,12.261,12.261,0,0,0,6.948-.782,15.791,15.791,0,0,0,2.909-1.867.81.81,0,0,1,1.086-.13,16.874,16.874,0,0,0,1.954,1.042c.391.174.347.347.087.608a12.528,12.528,0,0,1-6.557,3.865,18.225,18.225,0,0,1-6.123.391c-4.256-.391-7.817-2.084-9.988-5.862A9.339,9.339,0,0,1,294.74,4.736,13.248,13.248,0,0,1,302.947,2a18.193,18.193,0,0,1,6.3.782,13.692,13.692,0,0,1,5.906,4.082C315.237,6.864,315.237,6.907,315.237,7.037Z" transform="translate(-165.159 -1.548)" fill="#fff"/>
      <path id="Caminho_221" data-name="Caminho 221" d="M234.243,2.1h18.5V5.009h-14.2c-.738,0-.738,0-.738.695V9.439c0,.869,0,.869.825.869h14.113V13.26c0,.087-.261.217-.434.217H238.543c-.695,0-.738.043-.738.738v2.736h-3.6C234.243,11.957,234.243,7.05,234.243,2.1Z" transform="translate(-133.063 -1.604)" fill="#fff"/>
      <path id="Caminho_222" data-name="Caminho 222" d="M375.705,4.028C380.352,8.935,385,13.8,389.731,18.749a2.129,2.129,0,0,0,.043-.478c0-5.254-.043-10.465-.043-15.72,0-.651.043-.651.695-.651h2.258c.391,0,.564.087.564.478V22.049c0,.391-.13.521-.521.521-1.129,0-2.258.043-3.344,0a1.338,1.338,0,0,1-.868-.391c-2.909-3.04-5.819-6.123-8.728-9.206L375.879,8.8a1.012,1.012,0,0,1-.3-.651c-.043-1.346,0-2.692,0-4.039A.334.334,0,0,0,375.705,4.028Z" transform="translate(-213.035 -1.491)" fill="#fff"/>
      <path id="Caminho_223" data-name="Caminho 223" d="M26.487,2.117,24.663,3.941,6.033,22.18a1.421,1.421,0,0,1-1.129.478c-1.042-.043-2.084,0-3.127-.043a1.958,1.958,0,0,1-.478-.13,3.15,3.15,0,0,1,.217-.391c2-1.954,4.039-3.908,6.036-5.862,1.3-1.259,2.606-2.562,3.865-3.865a.552.552,0,0,0,0-.521,1.667,1.667,0,0,0-.478-.478c-3.04-3-6.08-5.949-9.163-8.946a3.819,3.819,0,0,0-.261-.434A.617.617,0,0,1,1.778,1.9c1.259,0,2.475,0,3.735.043a1.4,1.4,0,0,1,.912.347c2.345,2.3,4.646,4.6,6.991,6.9.651.651.608.608,1.259-.043C16.5,7.328,18.366,5.5,20.19,3.68l1.52-1.52a.779.779,0,0,1,.434-.261H26.4C26.4,1.987,26.443,2.03,26.487,2.117Z" transform="translate(-1.3 -1.491)" fill="#fff"/>
      <path id="Caminho_224" data-name="Caminho 224" d="M509.825,19.435v2.779c0,.391-.3.347-.565.347h-13.9c-.347,0-.564-.043-.564-.478V2.152a.582.582,0,0,1,.043-.217c.174,0,.391-.043.608-.043.738,0,1.52.043,2.258,0,.521-.043.608.13.608.608V15.4c0,1.216-.043,2.432-.043,3.648,0,.13.174.261.347.347a1.456,1.456,0,0,0,.434,0h10.118A3.077,3.077,0,0,0,509.825,19.435Z" transform="translate(-280.497 -1.483)" fill="#fff"/>
      <path id="Caminho_225" data-name="Caminho 225" d="M361.143,2h3.17a.381.381,0,0,1,.26.3,5.786,5.786,0,0,1,0,.869v18.89c0,.434-.13.608-.565.565-.825-.043-1.65,0-2.475,0-.3,0-.434-.087-.434-.434V2.13Z" transform="translate(-204.857 -1.548)" fill="#fff"/>
      <path id="Caminho_226" data-name="Caminho 226" d="M674.687,2h3.17a.381.381,0,0,1,.261.3,5.786,5.786,0,0,1,0,.869v18.89c0,.434-.13.608-.565.608-.825-.043-1.65,0-2.475,0-.3,0-.478-.087-.478-.434V2.174C674.643,2.13,674.643,2.13,674.687,2Z" transform="translate(-382.219 -1.548)" fill="#fff"/>
      <path id="Caminho_227" data-name="Caminho 227" d="M177.377,1.943h11.377c.347,0,.521.087.478.434V4.636c0,.3-.13.434-.434.391H166.087c-.565,0-.738-.13-.695-.695a14.038,14.038,0,0,0,0-1.911c0-.391.174-.521.521-.521,3.865,0,7.686,0,11.464.043Z" transform="translate(-94.131 -1.491)" fill="#fff"/>
      <path id="Caminho_228" data-name="Caminho 228" d="M85.252,4.727H75.395c-.695,0-.695,0-.695-.695V2.165c0-.434.13-.565.608-.565H95.24c.565,0,.738.174.695.695a14.033,14.033,0,0,0,0,1.911c0,.434-.13.521-.565.521C91.94,4.683,88.6,4.727,85.252,4.727Z" transform="translate(-42.826 -1.321)" fill="#fff"/>
      <path id="Caminho_229" data-name="Caminho 229" d="M98.133,15.3c-.261.391-.478.695-.651.955C94.008,20.728,90.49,25.2,87.016,29.674a1.238,1.238,0,0,1-1.042.521c-.955-.043-1.867,0-2.823,0a4.009,4.009,0,0,1-.651-.043q.521-.651.912-1.172c2.779-3.6,5.558-7.165,8.338-10.769.695-.869,1.346-1.737,2.041-2.606.13-.13.3-.3.478-.3Z" transform="translate(-47.239 -9.072)" fill="#fff"/>
      <path id="Caminho_230" data-name="Caminho 230" d="M252.778,42.4v2.692c0,.434-.261.434-.565.434H234.887c-.565,0-.738-.13-.695-.695.043-.782,0-1.607,0-2.432Z" transform="translate(-133.055 -24.404)" fill="#fff"/>
      <path id="Caminho_231" data-name="Caminho 231" d="M192.348,22.769v6.774c0,.478-.13.651-.651.651-.825-.043-1.65,0-2.475,0-.391,0-.521-.13-.521-.478V15.778c0-.347.13-.478.478-.478.869,0,1.78.043,2.649,0,.434,0,.521.13.521.521Z" transform="translate(-107.321 -9.072)" fill="#fff"/>
      <path id="Caminho_232" data-name="Caminho 232" d="M46.069,38.468H42.031a.857.857,0,0,1-.521-.261c-2-1.911-3.952-3.821-5.949-5.732-.347-.3-.347-.478,0-.782.521-.434,1.042-.955,1.52-1.433.3-.347.521-.347.868,0,2.258,2.258,4.56,4.516,6.861,6.731l1.346,1.346C46.113,38.381,46.069,38.424,46.069,38.468Z" transform="translate(-20.535 -17.389)" fill="#fff"/>
    </g>
    <g id="_1ballMenor2" data-name="1ballMenor2" transform="translate(285.74 5883)">
      <path id="Caminho_176" data-name="Caminho 176" d="M279.21,50.843a3.537,3.537,0,0,1-.241.417,1.023,1.023,0,0,1-1.46.064.994.994,0,0,1,.1-1.477.953.953,0,0,1,1.38.177c.1.128.16.257.241.385A3.91,3.91,0,0,0,279.21,50.843Z" transform="translate(-232.788 -41.758)" fill="#f951ff"/>
      <path id="Caminho_177" data-name="Caminho 177" d="M63.272,64.542A2.367,2.367,0,0,1,60.8,62.151,2.481,2.481,0,0,1,63.272,59.6a2.539,2.539,0,0,1,2.472,2.536A2.38,2.38,0,0,1,63.272,64.542Z" transform="translate(-51.099 -50.13)" fill="#f951ff"/>
      <path id="Caminho_178" data-name="Caminho 178" d="M62.268,203.442a2.483,2.483,0,0,1-2.472-2.472,2.481,2.481,0,0,1,4.959-.1A2.549,2.549,0,0,1,62.268,203.442Z" transform="translate(-50.256 -166.737)" fill="#f951ff"/>
      <path id="Caminho_179" data-name="Caminho 179" d="M198.3,201.671a2.432,2.432,0,0,1,2.375-2.472,2.509,2.509,0,0,1,2.568,2.44,2.476,2.476,0,0,1-2.488,2.52A2.4,2.4,0,0,1,198.3,201.671Z" transform="translate(-166.53 -167.325)" fill="#f951ff"/>
      <path id="Caminho_180" data-name="Caminho 180" d="M127.231,201.927a2.457,2.457,0,0,1-2.439-2.44,2.475,2.475,0,0,1,4.943-.193A2.5,2.5,0,0,1,127.231,201.927Z" transform="translate(-104.82 -165.479)" fill="#f951ff"/>
      <path id="Caminho_181" data-name="Caminho 181" d="M67.926,134.087a2.4,2.4,0,0,1-2.472,2.472,2.48,2.48,0,1,1,.064-4.959A2.39,2.39,0,0,1,67.926,134.087Z" transform="translate(-52.945 -110.574)" fill="#f951ff"/>
      <path id="Caminho_182" data-name="Caminho 182" d="M134.543,69.936a2.386,2.386,0,0,1-2.456,2.407,2.427,2.427,0,0,1-2.488-2.375,2.544,2.544,0,0,1,2.456-2.568A2.5,2.5,0,0,1,134.543,69.936Z" transform="translate(-108.857 -56.679)" fill="#f951ff"/>
      <path id="Caminho_183" data-name="Caminho 183" d="M197.426,134.188a2.5,2.5,0,0,1-2.552,2.472,2.481,2.481,0,0,1,.032-4.959A2.487,2.487,0,0,1,197.426,134.188Z" transform="translate(-161.661 -110.659)" fill="#f951ff"/>
      <path id="Caminho_184" data-name="Caminho 184" d="M201.739,60.9a2.5,2.5,0,0,1,2.5,2.5,2.526,2.526,0,0,1-2.664,2.44,2.476,2.476,0,0,1,.16-4.943Z" transform="translate(-167.37 -51.221)" fill="#f951ff"/>
      <path id="Caminho_185" data-name="Caminho 185" d="M35.754,235.493a1.836,1.836,0,0,1-1.894,1.846A1.945,1.945,0,0,1,32,235.348a1.775,1.775,0,0,1,1.878-1.749A1.894,1.894,0,0,1,35.754,235.493Z" transform="translate(-26.92 -196.203)" fill="#f951ff"/>
      <path id="Caminho_186" data-name="Caminho 186" d="M238.83,35.741a1.833,1.833,0,0,1-1.99,1.8,1.945,1.945,0,0,1-1.749-1.99,1.816,1.816,0,0,1,1.846-1.749A1.927,1.927,0,0,1,238.83,35.741Z" transform="translate(-197.416 -28.47)" fill="#f951ff"/>
      <path id="Caminho_187" data-name="Caminho 187" d="M97.723,227.025a1.8,1.8,0,0,1-1.862,1.814A1.93,1.93,0,0,1,94,226.912a1.781,1.781,0,0,1,1.765-1.814A1.908,1.908,0,0,1,97.723,227.025Z" transform="translate(-78.971 -189.067)" fill="#f951ff"/>
      <path id="Caminho_188" data-name="Caminho 188" d="M35.43,35.138a1.8,1.8,0,0,1-1.83-1.765A1.98,1.98,0,0,1,35.558,31.4a1.871,1.871,0,0,1-.128,3.74Z" transform="translate(-28.265 -26.455)" fill="#f951ff"/>
      <path id="Caminho_189" data-name="Caminho 189" d="M226.925,172.6a1.858,1.858,0,0,1,1.8,1.894,1.923,1.923,0,0,1-1.942,1.862,1.791,1.791,0,0,1-1.781-1.8A1.919,1.919,0,0,1,226.925,172.6Z" transform="translate(-188.945 -144.993)" fill="#f951ff"/>
      <path id="Caminho_190" data-name="Caminho 190" d="M225.4,97.4a1.794,1.794,0,0,1,1.8-1.8,1.9,1.9,0,0,1,1.942,1.878,1.865,1.865,0,0,1-1.749,1.862A1.939,1.939,0,0,1,225.4,97.4Z" transform="translate(-189.281 -80.351)" fill="#f951ff"/>
      <path id="Caminho_191" data-name="Caminho 191" d="M99.138,42.93a1.9,1.9,0,0,1-1.91,1.926,1.811,1.811,0,0,1-1.83-1.8A1.947,1.947,0,0,1,97.261,41.1,1.82,1.82,0,0,1,99.138,42.93Z" transform="translate(-80.145 -34.6)" fill="#f951ff"/>
      <path id="Caminho_192" data-name="Caminho 192" d="M174.338,229.346a1.916,1.916,0,0,1-1.862,1.91,1.871,1.871,0,0,1-1.878-1.83,1.956,1.956,0,0,1,1.942-1.926A1.806,1.806,0,0,1,174.338,229.346Z" transform="translate(-143.276 -191.083)" fill="#f951ff"/>
      <path id="Caminho_193" data-name="Caminho 193" d="M175.751,41.353a1.791,1.791,0,0,1-1.83,1.8A1.965,1.965,0,0,1,172,41.161a1.862,1.862,0,0,1,1.894-1.765A1.915,1.915,0,0,1,175.751,41.353Z" transform="translate(-144.448 -33.168)" fill="#f951ff"/>
      <path id="Caminho_194" data-name="Caminho 194" d="M42.722,172.558a1.757,1.757,0,0,1-1.765,1.8A1.913,1.913,0,0,1,39,172.51a1.854,1.854,0,0,1,1.814-1.91A1.935,1.935,0,0,1,42.722,172.558Z" transform="translate(-32.797 -143.316)" fill="#f951ff"/>
      <path id="Caminho_195" data-name="Caminho 195" d="M237.213,236.177a1.909,1.909,0,0,1-1.958,1.974,1.77,1.77,0,0,1-1.765-1.781,1.922,1.922,0,0,1,1.83-1.974A1.866,1.866,0,0,1,237.213,236.177Z" transform="translate(-196.072 -196.872)" fill="#f951ff"/>
      <path id="Caminho_196" data-name="Caminho 196" d="M41.225,94.5a1.788,1.788,0,0,1,1.814,1.8A1.928,1.928,0,0,1,41.1,98.238a1.854,1.854,0,0,1-1.8-1.878A1.908,1.908,0,0,1,41.225,94.5Z" transform="translate(-33.049 -79.428)" fill="#f951ff"/>
      <path id="Caminho_197" data-name="Caminho 197" d="M19.4,70.836A1.24,1.24,0,0,1,20.652,69.6a1.229,1.229,0,0,1,0,2.456A1.243,1.243,0,0,1,19.4,70.836Z" transform="translate(-16.344 -58.525)" fill="#f951ff"/>
      <path id="Caminho_198" data-name="Caminho 198" d="M19.718,205.538a1.22,1.22,0,0,1-1.22-1.268,1.221,1.221,0,1,1,1.22,1.268Z" transform="translate(-15.586 -170.598)" fill="#f951ff"/>
      <path id="Caminho_199" data-name="Caminho 199" d="M206.234,19.5A1.22,1.22,0,1,1,205,20.72,1.254,1.254,0,0,1,206.234,19.5Z" transform="translate(-172.154 -16.466)" fill="#f951ff"/>
      <path id="Caminho_200" data-name="Caminho 200" d="M71.42,253.7a1.223,1.223,0,0,1,1.22,1.188,1.22,1.22,0,1,1-2.439,0A1.224,1.224,0,0,1,71.42,253.7Z" transform="translate(-58.991 -213.079)" fill="#f951ff"/>
      <path id="Caminho_201" data-name="Caminho 201" d="M204.218,258.807a1.223,1.223,0,0,1-1.22-1.236,1.2,1.2,0,0,1,1.236-1.172,1.185,1.185,0,0,1,1.2,1.172A1.223,1.223,0,0,1,204.218,258.807Z" transform="translate(-170.475 -215.345)" fill="#f951ff"/>
      <path id="Caminho_202" data-name="Caminho 202" d="M72.284,21.368a1.213,1.213,0,1,1,2.423-.112,1.233,1.233,0,0,1-1.14,1.268A1.251,1.251,0,0,1,72.284,21.368Z" transform="translate(-60.738 -16.954)" fill="#f951ff"/>
      <path id="Caminho_203" data-name="Caminho 203" d="M257.016,73.634a1.212,1.212,0,1,1-1.2-1.236A1.2,1.2,0,0,1,257.016,73.634Z" transform="translate(-213.789 -60.874)" fill="#f951ff"/>
      <path id="Caminho_204" data-name="Caminho 204" d="M255,204.4a1.221,1.221,0,1,1-1.2,1.139A1.19,1.19,0,0,1,255,204.4Z" transform="translate(-213.117 -171.689)" fill="#f951ff"/>
      <path id="Caminho_205" data-name="Caminho 205" d="M13.2,9.04A1.137,1.137,0,0,1,14.354,7.9a1.25,1.25,0,0,1,1.22,1.268,1.138,1.138,0,0,1-1.14,1.107A1.207,1.207,0,0,1,13.2,9.04Z" transform="translate(-11.137 -6.728)" fill="#f951ff"/>
      <path id="Caminho_206" data-name="Caminho 206" d="M13.275,266.023a1.2,1.2,0,0,1-1.236,1.268A1.134,1.134,0,0,1,10.9,266.1a1.252,1.252,0,0,1,1.236-1.2A1.141,1.141,0,0,1,13.275,266.023Z" transform="translate(-9.208 -222.481)" fill="#f951ff"/>
      <path id="Caminho_207" data-name="Caminho 207" d="M269.389,14.454a1.261,1.261,0,0,1-1.252,1.236A1.182,1.182,0,0,1,267,14.518a1.243,1.243,0,0,1,1.236-1.22A1.141,1.141,0,0,1,269.389,14.454Z" transform="translate(-224.204 -11.26)" fill="#f951ff"/>
      <path id="Caminho_208" data-name="Caminho 208" d="M267.273,265.35a1.131,1.131,0,0,1-1.172,1.14,1.235,1.235,0,0,1-1.2-1.3,1.145,1.145,0,0,1,1.14-1.091A1.25,1.25,0,0,1,267.273,265.35Z" transform="translate(-222.441 -221.808)" fill="#f951ff"/>
      <path id="Caminho_209" data-name="Caminho 209" d="M276.7,232.474a.987.987,0,1,1,0-1.974.983.983,0,0,1,1,.963A.993.993,0,0,1,276.7,232.474Z" transform="translate(-231.509 -193.602)" fill="#f951ff"/>
      <path id="Caminho_210" data-name="Caminho 210" d="M48.027,277.874a1.028,1.028,0,0,1-1.027-1,1.011,1.011,0,0,1,1.011-.979.987.987,0,0,1,.016,1.974Z" transform="translate(-39.514 -231.716)" fill="#f951ff"/>
      <path id="Caminho_211" data-name="Caminho 211" d="M232.49,2.909a1,1,0,0,1-1.99.016A1.024,1.024,0,0,1,231.527,1.9.977.977,0,0,1,232.49,2.909Z" transform="translate(-193.563 -1.689)" fill="#f951ff"/>
      <path id="Caminho_212" data-name="Caminho 212" d="M.364,229.093a.966.966,0,0,1,.979-1,1.037,1.037,0,0,1,.979,1.027,1.016,1.016,0,0,1-.979.979A.97.97,0,0,1,.364,229.093Z" transform="translate(-0.357 -191.585)" fill="#f951ff"/>
      <path id="Caminho_213" data-name="Caminho 213" d="M2.693,48.972a.99.99,0,0,1-1-1A1,1,0,0,1,2.725,47a.987.987,0,0,1-.032,1.974Z" transform="translate(-1.482 -39.55)" fill="#f951ff"/>
      <path id="Caminho_214" data-name="Caminho 214" d="M51.574,1.561a.993.993,0,0,1-.979.979,1.022,1.022,0,0,1-1-1A.984.984,0,0,1,50.675.6.9.9,0,0,1,51.574,1.561Z" transform="translate(-41.697 -0.597)" fill="#f951ff"/>
      <path id="Caminho_215" data-name="Caminho 215" d="M229.011,279.34A.949.949,0,0,1,228,278.329a.988.988,0,0,1,1.974.048A.918.918,0,0,1,229.011,279.34Z" transform="translate(-191.465 -232.973)" fill="#f951ff"/>
    </g>
    <g id="bolasmeio" transform="translate(299.345 5897.123)">
      <path id="Caminho_233" data-name="Caminho 233" d="M388.882,328.361c-.048.241-.08.465-.128.706a3.066,3.066,0,0,1-2.151,2.375,2.9,2.9,0,0,1-2.343-.128,3.052,3.052,0,0,1-1.765-2.937,3.2,3.2,0,0,1,2.728-3.065,3.037,3.037,0,0,1,3.017,1.22,2.725,2.725,0,0,1,.514,1.348,2.078,2.078,0,0,0,.128.417Z" transform="translate(-370.562 -325.275)" fill="#ad95ff"/>
      <path id="Caminho_234" data-name="Caminho 234" d="M398.6,441.5h0Z" transform="translate(-384.085 -422.847)" fill="#ad95ff"/>
      <path id="Caminho_235" data-name="Caminho 235" d="M348.407,359.491a3.732,3.732,0,0,1,3.836,4.044,3.684,3.684,0,0,1-3.788,3.515,3.9,3.9,0,0,1-3.756-3.932A3.661,3.661,0,0,1,348.407,359.491Z" transform="translate(-338.835 -353.998)" fill="#ad95ff"/>
      <path id="Caminho_236" data-name="Caminho 236" d="M314.326,333.272A3.314,3.314,0,0,1,311.1,330a3.148,3.148,0,0,1,3.178-3.1,3.183,3.183,0,0,1,3.178,3.258A3.119,3.119,0,0,1,314.326,333.272Z" transform="translate(-310.628 -326.639)" fill="#ad95ff"/>
      <path id="Caminho_237" data-name="Caminho 237" d="M308.165,398.984a3.13,3.13,0,0,1,6.211-.562,3.148,3.148,0,0,1-6.115,1.477A8.406,8.406,0,0,1,308.165,398.984Z" transform="translate(-308.158 -384.52)" fill="#ad95ff"/>
      <path id="Caminho_238" data-name="Caminho 238" d="M385.333,407.929a3.106,3.106,0,0,1-3.258-2.7,3.176,3.176,0,0,1,3.033-3.547,3.172,3.172,0,0,1,2.472,5.248A2.622,2.622,0,0,1,385.333,407.929Z" transform="translate(-370.191 -389.42)" fill="#ad95ff"/>
    </g>
  </g>
</svg>
