<svg xmlns="http://www.w3.org/2000/svg" width="233.812" height="113.911" viewBox="0 0 233.812 113.911">
  <g id="Grupo_96" data-name="Grupo 96" transform="translate(-53.188 -5204.958)">
    <g id="_1x7tecnologia-curves" data-name="1x7tecnologia-curves" transform="translate(53.188 5303.293)">
      <path id="Caminho_216" data-name="Caminho 216" d="M614.687,16.473c.309-.062.648-.093.957-.154v-.062c-.309-.031-.618-.062-.926-.062a6.9,6.9,0,0,1-4.477-2.316A6.757,6.757,0,0,1,608.357,9.4a7.857,7.857,0,0,1,.556-3.767,7.581,7.581,0,0,1,6.268-4.477,8.47,8.47,0,0,1,5,.679,9.2,9.2,0,0,1,3.15,2.5c.062.062.093.278.031.309-.556.463-1.112.9-1.637,1.3a14.5,14.5,0,0,0-1.359-1.39,5.672,5.672,0,0,0-3.983-1.328A5.94,5.94,0,0,0,612,5.017a5.257,5.257,0,0,0-1.451,4.354,4.9,4.9,0,0,0,2.439,3.922,6.343,6.343,0,0,0,6.824-.031,4.5,4.5,0,0,0,1.853-2.409c.154-.34-.092-.34-.309-.34-1.636,0-3.273,0-4.941.031-.4,0-.525-.124-.494-.494a10.452,10.452,0,0,0,0-1.39c0-.247.093-.34.309-.309,2.686,0,5.4.031,8.09.062.031,0,.031.031.124.062a8.042,8.042,0,0,1-1.884,5.589,6.538,6.538,0,0,1-5.435,2.254c0,.031.031.093.031.124.4.062.834.093,1.235.154C617.157,16.473,615.922,16.473,614.687,16.473Z" transform="translate(-420.894 -1.021)" fill="#fff"/>
      <path id="Caminho_217" data-name="Caminho 217" d="M550.862,16.141a8.438,8.438,0,0,1-4.786-1.328,7.068,7.068,0,0,1-3.211-5,7.253,7.253,0,0,1,2.069-6.577A7.49,7.49,0,0,1,549.225,1.1a8.709,8.709,0,0,1,5.373.71A7.085,7.085,0,0,1,558.643,7.4a7.715,7.715,0,0,1-1.328,5.682,6.955,6.955,0,0,1-5.033,2.933C551.788,16.079,551.325,16.11,550.862,16.141Zm-.154-2.192c3.273-.093,5.527-2.223,5.527-5.249A5.532,5.532,0,0,0,545.18,8.39,5.343,5.343,0,0,0,550.707,13.949Z" transform="translate(-375.565 -0.967)" fill="#fff"/>
      <path id="Caminho_218" data-name="Caminho 218" d="M437.487,16.132a7.876,7.876,0,0,1-6.145-2.656,6.985,6.985,0,0,1-1.76-4.014,7.3,7.3,0,0,1,1.606-5.682,7.432,7.432,0,0,1,4.91-2.717,9.124,9.124,0,0,1,4.724.494,7.154,7.154,0,0,1,4.508,5.465A7.552,7.552,0,0,1,444.5,12.4a7.021,7.021,0,0,1-5.558,3.613C438.475,16.071,437.981,16.1,437.487,16.132Zm-5.466-7.6a5.27,5.27,0,0,0,5.527,5.4,5.2,5.2,0,0,0,5.465-5.033,5.5,5.5,0,1,0-10.993-.371Z" transform="translate(-297.299 -0.958)" fill="#fff"/>
      <path id="Caminho_219" data-name="Caminho 219" d="M710.478,11.033c-1.3-2.409-2.532-4.724-3.829-7.133-.154.278-.278.463-.371.648-.772,1.451-1.544,2.872-2.316,4.323-.062.093-.185.216-.278.216-.834.031-1.636,0-2.532,0a6.906,6.906,0,0,1,.34-.679c1.112-2.1,2.254-4.2,3.366-6.3a.544.544,0,0,1,.525-.309c.834,0,1.7,0,2.532.031a.567.567,0,0,1,.432.247c.649,1.143,1.266,2.285,1.884,3.428,1.266,2.347,2.532,4.663,3.8,7.009l1.945,3.613a2.4,2.4,0,0,0,.154.371H713.72a.476.476,0,0,1-.494-.309c-.432-.865-.865-1.7-1.266-2.532a.724.724,0,0,0-.772-.432H702.11a.666.666,0,0,0-.71.4c-.4.9-.865,1.729-1.328,2.594-.062.093-.216.247-.309.247-.8.031-1.606,0-2.439,0-.031,0-.062-.031-.123-.062.031-.093.062-.154.093-.247.865-1.637,1.76-3.242,2.625-4.879a.6.6,0,0,1,.618-.371h5.311c1.359,0,2.748.031,4.107.062A1.14,1.14,0,0,0,710.478,11.033Z" transform="translate(-482.317 -1.54)" fill="#fff"/>
      <path id="Caminho_220" data-name="Caminho 220" d="M308.215,5.582c-.679.247-1.3.494-1.976.679a.623.623,0,0,1-.432-.154,7.528,7.528,0,0,0-3.922-1.884,8.411,8.411,0,0,0-6.207,1.05,4.657,4.657,0,0,0-2.285,3.767,4.477,4.477,0,0,0,1.7,3.891,6.8,6.8,0,0,0,3.551,1.513,8.719,8.719,0,0,0,4.941-.556,11.231,11.231,0,0,0,2.069-1.328.576.576,0,0,1,.772-.093,12,12,0,0,0,1.39.741c.278.124.247.247.062.432a8.908,8.908,0,0,1-4.663,2.748,12.96,12.96,0,0,1-4.354.278c-3.026-.278-5.558-1.482-7.1-4.169a6.641,6.641,0,0,1,1.884-8.553A9.42,9.42,0,0,1,299.476,2a12.937,12.937,0,0,1,4.477.556,9.736,9.736,0,0,1,4.2,2.9C308.215,5.458,308.215,5.489,308.215,5.582Z" transform="translate(-201.499 -1.678)" fill="#fff"/>
      <path id="Caminho_221" data-name="Caminho 221" d="M234.231,2.1h13.154V4.169h-10.1c-.525,0-.525,0-.525.494V7.318c0,.618,0,.618.587.618h10.035v2.1c0,.062-.185.154-.309.154h-9.789c-.494,0-.525.031-.525.525V12.66H234.2C234.231,9.109,234.231,5.62,234.231,2.1Z" transform="translate(-162.284 -1.747)" fill="#fff"/>
      <path id="Caminho_222" data-name="Caminho 222" d="M375.662,3.413c3.3,3.489,6.608,6.948,9.974,10.468a1.516,1.516,0,0,0,.031-.34c0-3.736-.031-7.442-.031-11.178,0-.463.031-.463.494-.463h1.606c.278,0,.4.062.4.34V16.228c0,.278-.093.371-.37.371-.8,0-1.606.031-2.378,0a.951.951,0,0,1-.618-.278c-2.069-2.161-4.138-4.354-6.207-6.546L375.785,6.81a.719.719,0,0,1-.216-.463c-.031-.957,0-1.914,0-2.872A.237.237,0,0,0,375.662,3.413Z" transform="translate(-259.991 -1.609)" fill="#fff"/>
      <path id="Caminho_223" data-name="Caminho 223" d="M19.209,2.054l-1.3,1.3L4.666,16.32a1.01,1.01,0,0,1-.8.34c-.741-.031-1.482,0-2.223-.031a1.392,1.392,0,0,1-.34-.093,2.24,2.24,0,0,1,.154-.278c1.42-1.39,2.872-2.779,4.292-4.169.926-.9,1.853-1.822,2.748-2.748a.392.392,0,0,0,0-.371,1.185,1.185,0,0,0-.34-.34C5.994,6.5,3.832,4.4,1.64,2.271a2.715,2.715,0,0,0-.185-.309A.439.439,0,0,1,1.64,1.9c.9,0,1.76,0,2.656.031a1,1,0,0,1,.648.247c1.667,1.637,3.3,3.273,4.971,4.91.463.463.432.432.9-.031,1.3-1.3,2.625-2.594,3.922-3.891l1.081-1.081a.554.554,0,0,1,.309-.185h3.026C19.148,1.962,19.179,1.993,19.209,2.054Z" transform="translate(-1.3 -1.609)" fill="#fff"/>
      <path id="Caminho_224" data-name="Caminho 224" d="M505.484,14.365v1.976c0,.278-.216.247-.4.247H495.2c-.247,0-.4-.031-.4-.34V2.075a.414.414,0,0,1,.031-.154c.124,0,.278-.031.432-.031.525,0,1.081.031,1.606,0,.371-.031.432.093.432.432v9.171c0,.865-.031,1.729-.031,2.594,0,.093.124.185.247.247a1.036,1.036,0,0,0,.309,0h7.195A2.188,2.188,0,0,0,505.484,14.365Z" transform="translate(-342.415 -1.599)" fill="#fff"/>
      <path id="Caminho_225" data-name="Caminho 225" d="M361.131,2h2.254a.271.271,0,0,1,.185.216,4.116,4.116,0,0,1,0,.618V16.266c0,.309-.093.432-.4.4-.587-.031-1.173,0-1.76,0-.216,0-.309-.062-.309-.309V2.093Z" transform="translate(-249.999 -1.678)" fill="#fff"/>
      <path id="Caminho_226" data-name="Caminho 226" d="M674.662,2h2.254a.271.271,0,0,1,.185.216,4.108,4.108,0,0,1,0,.618V16.266c0,.309-.093.432-.4.432-.587-.031-1.173,0-1.76,0-.216,0-.34-.062-.34-.309V2.124C674.631,2.093,674.631,2.093,674.662,2Z" transform="translate(-466.696 -1.678)" fill="#fff"/>
      <path id="Caminho_227" data-name="Caminho 227" d="M173.912,1.931H182c.247,0,.371.062.34.309V3.845c0,.216-.093.309-.309.278H165.884c-.4,0-.525-.093-.494-.494a9.978,9.978,0,0,0,0-1.359c0-.278.123-.371.371-.371,2.748,0,5.465,0,8.152.031Z" transform="translate(-114.718 -1.609)" fill="#fff"/>
      <path id="Caminho_228" data-name="Caminho 228" d="M82.2,3.823H75.194c-.494,0-.494,0-.494-.494V2c0-.309.093-.4.432-.4H89.306c.4,0,.525.124.494.494a9.978,9.978,0,0,0,0,1.359c0,.309-.093.371-.4.371C86.959,3.792,84.581,3.823,82.2,3.823Z" transform="translate(-52.035 -1.402)" fill="#fff"/>
      <path id="Caminho_229" data-name="Caminho 229" d="M93.616,15.3c-.185.278-.34.494-.463.679-2.47,3.18-4.971,6.361-7.442,9.541a.88.88,0,0,1-.741.371c-.679-.031-1.328,0-2.007,0a2.851,2.851,0,0,1-.463-.031q.371-.463.648-.834c1.976-2.563,3.952-5.095,5.929-7.658.494-.618.957-1.235,1.451-1.853.093-.093.216-.216.34-.216Z" transform="translate(-57.427 -10.871)" fill="#fff"/>
      <path id="Caminho_230" data-name="Caminho 230" d="M247.406,42.4v1.914c0,.309-.185.309-.4.309h-12.32c-.4,0-.525-.093-.494-.494.031-.556,0-1.143,0-1.729Z" transform="translate(-162.274 -29.603)" fill="#fff"/>
      <path id="Caminho_231" data-name="Caminho 231" d="M191.294,20.611v4.817c0,.34-.093.463-.463.463-.587-.031-1.173,0-1.76,0-.278,0-.371-.093-.371-.34V15.64c0-.247.093-.34.34-.34.618,0,1.266.031,1.884,0,.309,0,.371.093.371.371Z" transform="translate(-130.834 -10.871)" fill="#fff"/>
      <path id="Caminho_232" data-name="Caminho 232" d="M42.958,36.021H40.086a.61.61,0,0,1-.371-.185c-1.42-1.359-2.81-2.717-4.23-4.076-.247-.216-.247-.34,0-.556.371-.309.741-.679,1.081-1.019.216-.247.371-.247.618,0,1.606,1.606,3.242,3.211,4.879,4.786l.957.957C42.989,35.96,42.958,35.99,42.958,36.021Z" transform="translate(-24.801 -21.032)" fill="#fff"/>
    </g>
    <g id="Grupo_64" data-name="Grupo 64" transform="translate(132.304 5204.958)">
      <g id="_1ballMenor2" data-name="1ballMenor2" transform="translate(0)">
        <path id="Caminho_176" data-name="Caminho 176" d="M280.434,51.591a5.714,5.714,0,0,1-.389.674,1.653,1.653,0,0,1-2.36.1,1.606,1.606,0,0,1,.156-2.386,1.54,1.54,0,0,1,2.23.285c.156.207.259.415.389.622A6.312,6.312,0,0,0,280.434,51.591Z" transform="translate(-205.417 -36.911)" fill="#f951ff"/>
        <path id="Caminho_177" data-name="Caminho 177" d="M64.794,67.587A3.826,3.826,0,0,1,60.8,63.723,4.01,4.01,0,0,1,64.794,59.6a4.1,4.1,0,0,1,3.994,4.1A3.846,3.846,0,0,1,64.794,67.587Z" transform="translate(-45.124 -44.297)" fill="#f951ff"/>
        <path id="Caminho_178" data-name="Caminho 178" d="M63.791,206.487a4.012,4.012,0,0,1-3.994-3.994,4.009,4.009,0,0,1,8.014-.156A4.12,4.12,0,0,1,63.791,206.487Z" transform="translate(-44.38 -147.172)" fill="#f951ff"/>
        <path id="Caminho_179" data-name="Caminho 179" d="M198.3,203.193a3.931,3.931,0,0,1,3.838-3.994,4.054,4.054,0,0,1,4.15,3.942,4,4,0,0,1-4.02,4.072A3.885,3.885,0,0,1,198.3,203.193Z" transform="translate(-146.962 -147.69)" fill="#f951ff"/>
        <path id="Caminho_180" data-name="Caminho 180" d="M128.735,204.962a3.971,3.971,0,0,1-3.942-3.942,4,4,0,0,1,7.988-.311A4.039,4.039,0,0,1,128.735,204.962Z" transform="translate(-92.518 -146.062)" fill="#f951ff"/>
        <path id="Caminho_181" data-name="Caminho 181" d="M70.961,135.619a3.87,3.87,0,0,1-3.994,3.994,4.007,4.007,0,1,1,.1-8.014A3.861,3.861,0,0,1,70.961,135.619Z" transform="translate(-46.752 -97.623)" fill="#f951ff"/>
        <path id="Caminho_182" data-name="Caminho 182" d="M137.588,71.5a3.855,3.855,0,0,1-3.968,3.89,3.921,3.921,0,0,1-4.02-3.838,4.111,4.111,0,0,1,3.968-4.15A4.041,4.041,0,0,1,137.588,71.5Z" transform="translate(-96.08 -50.074)" fill="#f951ff"/>
        <path id="Caminho_183" data-name="Caminho 183" d="M200.461,135.72a4.042,4.042,0,0,1-4.124,3.994,4.01,4.01,0,0,1,.052-8.014A4.018,4.018,0,0,1,200.461,135.72Z" transform="translate(-142.666 -97.698)" fill="#f951ff"/>
        <path id="Caminho_184" data-name="Caminho 184" d="M203.241,60.9a4.034,4.034,0,0,1,4.046,4.046,4.081,4.081,0,0,1-4.305,3.942,4,4,0,0,1,.259-7.988Z" transform="translate(-147.702 -45.259)" fill="#f951ff"/>
        <path id="Caminho_185" data-name="Caminho 185" d="M38.068,236.659a2.968,2.968,0,0,1-3.06,2.983A3.144,3.144,0,0,1,32,236.426a2.869,2.869,0,0,1,3.034-2.827A3.06,3.06,0,0,1,38.068,236.659Z" transform="translate(-23.792 -173.168)" fill="#f951ff"/>
        <path id="Caminho_186" data-name="Caminho 186" d="M241.135,36.937a2.963,2.963,0,0,1-3.216,2.9,3.144,3.144,0,0,1-2.827-3.216,2.934,2.934,0,0,1,2.983-2.827A3.115,3.115,0,0,1,241.135,36.937Z" transform="translate(-174.21 -25.188)" fill="#f951ff"/>
        <path id="Caminho_187" data-name="Caminho 187" d="M100.017,228.211a2.914,2.914,0,0,1-3.008,2.931A3.119,3.119,0,0,1,94,228.03a2.879,2.879,0,0,1,2.853-2.931A3.084,3.084,0,0,1,100.017,228.211Z" transform="translate(-69.713 -166.873)" fill="#f951ff"/>
        <path id="Caminho_188" data-name="Caminho 188" d="M36.557,37.442A2.9,2.9,0,0,1,33.6,34.589a3.2,3.2,0,0,1,3.164-3.19,3.023,3.023,0,0,1-.207,6.043Z" transform="translate(-24.978 -23.41)" fill="#f951ff"/>
        <path id="Caminho_189" data-name="Caminho 189" d="M228.111,172.6a3,3,0,0,1,2.9,3.06,3.107,3.107,0,0,1-3.138,3.009,2.894,2.894,0,0,1-2.879-2.9A3.1,3.1,0,0,1,228.111,172.6Z" transform="translate(-166.737 -127.989)" fill="#f951ff"/>
        <path id="Caminho_190" data-name="Caminho 190" d="M225.4,98.5a2.9,2.9,0,0,1,2.9-2.9,3.078,3.078,0,0,1,3.138,3.034,3.014,3.014,0,0,1-2.827,3.008A3.134,3.134,0,0,1,225.4,98.5Z" transform="translate(-167.033 -70.959)" fill="#f951ff"/>
        <path id="Caminho_191" data-name="Caminho 191" d="M101.442,44.057a3.066,3.066,0,0,1-3.086,3.112,2.927,2.927,0,0,1-2.957-2.9A3.147,3.147,0,0,1,98.408,41.1,2.941,2.941,0,0,1,101.442,44.057Z" transform="translate(-70.749 -30.595)" fill="#f951ff"/>
        <path id="Caminho_192" data-name="Caminho 192" d="M176.642,230.483a3.1,3.1,0,0,1-3.009,3.086,3.023,3.023,0,0,1-3.034-2.957,3.161,3.161,0,0,1,3.138-3.112A2.918,2.918,0,0,1,176.642,230.483Z" transform="translate(-126.446 -168.651)" fill="#f951ff"/>
        <path id="Caminho_193" data-name="Caminho 193" d="M178.065,42.56a2.894,2.894,0,0,1-2.957,2.9A3.176,3.176,0,0,1,172,42.249a3.009,3.009,0,0,1,3.06-2.853A3.1,3.1,0,0,1,178.065,42.56Z" transform="translate(-127.479 -29.332)" fill="#f951ff"/>
        <path id="Caminho_194" data-name="Caminho 194" d="M45.016,173.764a2.84,2.84,0,0,1-2.853,2.9A3.092,3.092,0,0,1,39,173.686,3,3,0,0,1,41.93,170.6,3.127,3.127,0,0,1,45.016,173.764Z" transform="translate(-28.977 -126.509)" fill="#f951ff"/>
        <path id="Caminho_195" data-name="Caminho 195" d="M239.508,237.275a3.086,3.086,0,0,1-3.164,3.19,2.86,2.86,0,0,1-2.853-2.879,3.106,3.106,0,0,1,2.957-3.19A3.015,3.015,0,0,1,239.508,237.275Z" transform="translate(-173.024 -173.758)" fill="#f951ff"/>
        <path id="Caminho_196" data-name="Caminho 196" d="M42.411,94.5a2.889,2.889,0,0,1,2.931,2.9,3.116,3.116,0,0,1-3.138,3.138,3,3,0,0,1-2.9-3.034A3.083,3.083,0,0,1,42.411,94.5Z" transform="translate(-29.199 -70.145)" fill="#f951ff"/>
        <path id="Caminho_197" data-name="Caminho 197" d="M19.4,71.6a2,2,0,0,1,2.023-2,1.986,1.986,0,0,1,0,3.968A2.009,2.009,0,0,1,19.4,71.6Z" transform="translate(-14.461 -51.704)" fill="#f951ff"/>
        <path id="Caminho_198" data-name="Caminho 198" d="M20.469,207.041a1.972,1.972,0,0,1-1.971-2.049,1.973,1.973,0,1,1,1.971,2.049Z" transform="translate(-13.793 -150.578)" fill="#f951ff"/>
        <path id="Caminho_199" data-name="Caminho 199" d="M207,19.5a1.972,1.972,0,1,1-2,1.971A2.027,2.027,0,0,1,207,19.5Z" transform="translate(-151.923 -14.597)" fill="#f951ff"/>
        <path id="Caminho_200" data-name="Caminho 200" d="M72.171,253.7a1.977,1.977,0,0,1,1.971,1.919,1.972,1.972,0,1,1-3.942,0A1.977,1.977,0,0,1,72.171,253.7Z" transform="translate(-52.086 -188.056)" fill="#f951ff"/>
        <path id="Caminho_201" data-name="Caminho 201" d="M204.97,260.29a1.976,1.976,0,0,1-1.971-2,1.944,1.944,0,0,1,2-1.893,1.915,1.915,0,0,1,1.945,1.893A1.976,1.976,0,0,1,204.97,260.29Z" transform="translate(-150.442 -190.056)" fill="#f951ff"/>
        <path id="Caminho_202" data-name="Caminho 202" d="M72.286,22.161a1.96,1.96,0,1,1,3.916-.182,1.993,1.993,0,0,1-1.841,2.049A2.022,2.022,0,0,1,72.286,22.161Z" transform="translate(-53.627 -15.028)" fill="#f951ff"/>
        <path id="Caminho_203" data-name="Caminho 203" d="M258.51,74.4a1.959,1.959,0,1,1-1.945-2A1.938,1.938,0,0,1,258.51,74.4Z" transform="translate(-188.654 -53.776)" fill="#f951ff"/>
        <path id="Caminho_204" data-name="Caminho 204" d="M255.739,204.4a1.973,1.973,0,1,1-1.945,1.841A1.923,1.923,0,0,1,255.739,204.4Z" transform="translate(-188.062 -151.541)" fill="#f951ff"/>
        <path id="Caminho_205" data-name="Caminho 205" d="M13.2,9.741A1.838,1.838,0,0,1,15.066,7.9a2.021,2.021,0,0,1,1.971,2.049,1.838,1.838,0,0,1-1.841,1.79A1.95,1.95,0,0,1,13.2,9.741Z" transform="translate(-9.868 -6.006)" fill="#f951ff"/>
        <path id="Caminho_206" data-name="Caminho 206" d="M14.738,266.716a1.94,1.94,0,0,1-2,2.049,1.832,1.832,0,0,1-1.841-1.919,2.023,2.023,0,0,1,2-1.945A1.843,1.843,0,0,1,14.738,266.716Z" transform="translate(-8.166 -196.352)" fill="#f951ff"/>
        <path id="Caminho_207" data-name="Caminho 207" d="M270.863,15.166a2.037,2.037,0,0,1-2.023,2A1.911,1.911,0,0,1,267,15.27a2.009,2.009,0,0,1,2-1.971A1.843,1.843,0,0,1,270.863,15.166Z" transform="translate(-197.843 -10.004)" fill="#f951ff"/>
        <path id="Caminho_208" data-name="Caminho 208" d="M268.737,266.121a1.828,1.828,0,0,1-1.893,1.842,2,2,0,0,1-1.945-2.1,1.851,1.851,0,0,1,1.842-1.764A2.02,2.02,0,0,1,268.737,266.121Z" transform="translate(-196.288 -195.757)" fill="#f951ff"/>
        <path id="Caminho_209" data-name="Caminho 209" d="M277.308,233.69a1.6,1.6,0,1,1,0-3.19,1.589,1.589,0,0,1,1.608,1.556A1.605,1.605,0,0,1,277.308,233.69Z" transform="translate(-204.288 -170.873)" fill="#f951ff"/>
        <path id="Caminho_210" data-name="Caminho 210" d="M48.66,279.09A1.662,1.662,0,0,1,47,277.482a1.634,1.634,0,0,1,1.634-1.582,1.6,1.6,0,0,1,.026,3.19Z" transform="translate(-34.903 -204.499)" fill="#f951ff"/>
        <path id="Caminho_211" data-name="Caminho 211" d="M233.716,3.532a1.609,1.609,0,0,1-3.216.026,1.655,1.655,0,0,1,1.66-1.66A1.579,1.579,0,0,1,233.716,3.532Z" transform="translate(-170.811 -1.56)" fill="#f951ff"/>
        <path id="Caminho_212" data-name="Caminho 212" d="M.368,229.706A1.561,1.561,0,0,1,1.95,228.1a1.676,1.676,0,0,1,1.582,1.66A1.642,1.642,0,0,1,1.95,231.34,1.567,1.567,0,0,1,.368,229.706Z" transform="translate(-0.357 -169.094)" fill="#f951ff"/>
        <path id="Caminho_213" data-name="Caminho 213" d="M3.306,50.188A1.6,1.6,0,0,1,1.7,48.58,1.622,1.622,0,0,1,3.358,47a1.6,1.6,0,0,1-.052,3.19Z" transform="translate(-1.35 -34.963)" fill="#f951ff"/>
        <path id="Caminho_214" data-name="Caminho 214" d="M52.79,2.154a1.605,1.605,0,0,1-1.582,1.582A1.651,1.651,0,0,1,49.6,2.128,1.59,1.59,0,0,1,51.338.6,1.461,1.461,0,0,1,52.79,2.154Z" transform="translate(-36.829 -0.597)" fill="#f951ff"/>
        <path id="Caminho_215" data-name="Caminho 215" d="M229.634,280.536A1.534,1.534,0,0,1,228,278.9a1.6,1.6,0,0,1,3.19.078A1.484,1.484,0,0,1,229.634,280.536Z" transform="translate(-168.96 -205.608)" fill="#f951ff"/>
      </g>
      <g id="bolasmeio" transform="translate(23.6 22.823)">
        <path id="Caminho_233" data-name="Caminho 233" d="M392.817,330.261c-.078.389-.13.752-.207,1.141a4.955,4.955,0,0,1-3.475,3.838,4.691,4.691,0,0,1-3.787-.207,4.932,4.932,0,0,1-2.853-4.746,5.168,5.168,0,0,1,4.409-4.954,4.908,4.908,0,0,1,4.876,1.971,4.4,4.4,0,0,1,.83,2.179,3.353,3.353,0,0,0,.207.674Z" transform="translate(-363.214 -325.275)" fill="#ad95ff"/>
        <path id="Caminho_234" data-name="Caminho 234" d="M398.6,441.5h0Z" transform="translate(-375.143 -411.356)" fill="#ad95ff"/>
        <path id="Caminho_235" data-name="Caminho 235" d="M350.69,359.492a6.03,6.03,0,0,1,6.2,6.536,5.953,5.953,0,0,1-6.121,5.68c-3.579.052-6.095-3.294-6.069-6.354A5.917,5.917,0,0,1,350.69,359.492Z" transform="translate(-335.222 -350.615)" fill="#ad95ff"/>
        <path id="Caminho_236" data-name="Caminho 236" d="M316.313,337.2a5.355,5.355,0,0,1-5.213-5.291,5.087,5.087,0,0,1,5.135-5.006,5.144,5.144,0,0,1,5.135,5.265A5.041,5.041,0,0,1,316.313,337.2Z" transform="translate(-310.337 -326.479)" fill="#ad95ff"/>
        <path id="Caminho_237" data-name="Caminho 237" d="M308.169,400.917a5.058,5.058,0,0,1,10.037-.908,5.088,5.088,0,0,1-9.881,2.386A13.567,13.567,0,0,1,308.169,400.917Z" transform="translate(-308.158 -377.543)" fill="#ad95ff"/>
        <path id="Caminho_238" data-name="Caminho 238" d="M387.354,411.776a5.02,5.02,0,0,1-5.265-4.357,5.132,5.132,0,0,1,4.9-5.732,5.125,5.125,0,0,1,3.994,8.481A4.237,4.237,0,0,1,387.354,411.776Z" transform="translate(-362.886 -381.866)" fill="#ad95ff"/>
      </g>
    </g>
  </g>
</svg>
