<svg xmlns="http://www.w3.org/2000/svg" width="177.735" height="75.183" viewBox="0 0 177.735 75.183">
  <g id="Grupo_134" data-name="Grupo 134" transform="translate(-699.265 -2798.817)">
    <g id="Grupo_107" data-name="Grupo 107" transform="translate(-8310.502 1318.168)" opacity="0.77" style="mix-blend-mode: hue;isolation: isolate">
      <path id="Caminho_223" data-name="Caminho 223" d="M82.26,2.6,76.4,8.461,16.515,67.087a4.567,4.567,0,0,1-3.629,1.535c-3.35-.14-6.7,0-10.05-.14A6.293,6.293,0,0,1,1.3,68.064,10.126,10.126,0,0,1,2,66.808c6.421-6.281,12.982-12.563,19.4-18.844,4.188-4.048,8.375-8.236,12.423-12.423a1.774,1.774,0,0,0,0-1.675,5.357,5.357,0,0,0-1.535-1.535C22.517,22.7,12.746,13.206,2.835,3.575A12.275,12.275,0,0,0,2,2.179,1.984,1.984,0,0,1,2.835,1.9c4.048,0,7.956,0,12,.14a4.5,4.5,0,0,1,2.931,1.117c7.538,7.4,14.936,14.8,22.473,22.194,2.094,2.094,1.954,1.954,4.048-.14C50.155,19.348,56.157,13.486,62.02,7.623l4.886-4.886A2.5,2.5,0,0,1,68.3,1.9H81.981C81.981,2.179,82.12,2.319,82.26,2.6Z" transform="translate(9015.467 1487.21)" fill="#fff"/>
      <path id="Caminho_228" data-name="Caminho 228" d="M108.619,11.65H76.933c-2.233,0-2.233,0-2.233-2.233v-6c0-1.4.419-1.815,1.954-1.815h64.07c1.815,0,2.373.558,2.233,2.233a45.1,45.1,0,0,0,0,6.142c0,1.4-.419,1.675-1.815,1.675C130.116,11.511,119.368,11.65,108.619,11.65Z" transform="translate(9044.523 1487.091)" fill="#fff"/>
      <path id="Caminho_229" data-name="Caminho 229" d="M132.751,15.3c-.838,1.256-1.535,2.233-2.094,3.071C119.49,32.748,108.184,47.126,97.017,61.5a3.98,3.98,0,0,1-3.35,1.675c-3.071-.14-6,0-9.073,0a12.888,12.888,0,0,1-2.094-.14q1.675-2.094,2.931-3.769c8.933-11.586,17.867-23.032,26.8-34.617,2.233-2.792,4.327-5.583,6.561-8.375.419-.419.977-.977,1.535-.977Z" transform="translate(9047.61 1492.514)" fill="#fff"/>
      <path id="Caminho_232" data-name="Caminho 232" d="M69.917,57.219H56.936a2.756,2.756,0,0,1-1.675-.838C48.84,50.24,42.558,44.1,36.138,37.956c-1.117-.977-1.117-1.535,0-2.513,1.675-1.4,3.35-3.071,4.886-4.606.977-1.117,1.675-1.117,2.792,0C51.073,38.1,58.471,45.354,65.869,52.473L70.2,56.8C70.057,56.94,69.917,57.08,69.917,57.219Z" transform="translate(9028.926 1498.334)" fill="#fff"/>
    </g>
    <g id="Grupo_108" data-name="Grupo 108" transform="translate(-8317.502 1310.126)">
      <path id="Caminho_223-2" data-name="Caminho 223" d="M82.26,2.6,76.4,8.461,16.515,67.087a4.567,4.567,0,0,1-3.629,1.535c-3.35-.14-6.7,0-10.05-.14A6.293,6.293,0,0,1,1.3,68.064,10.126,10.126,0,0,1,2,66.808c6.421-6.281,12.982-12.563,19.4-18.844,4.188-4.048,8.375-8.236,12.423-12.423a1.774,1.774,0,0,0,0-1.675,5.357,5.357,0,0,0-1.535-1.535C22.517,22.7,12.746,13.206,2.835,3.575A12.275,12.275,0,0,0,2,2.179,1.984,1.984,0,0,1,2.835,1.9c4.048,0,7.956,0,12,.14a4.5,4.5,0,0,1,2.931,1.117c7.538,7.4,14.936,14.8,22.473,22.194,2.094,2.094,1.954,1.954,4.048-.14C50.155,19.348,56.157,13.486,62.02,7.623l4.886-4.886A2.5,2.5,0,0,1,68.3,1.9H81.981C81.981,2.179,82.12,2.319,82.26,2.6Z" transform="translate(9015.467 1487.21)" fill="#823eb9"/>
      <path id="Caminho_228-2" data-name="Caminho 228" d="M108.619,11.65H76.933c-2.233,0-2.233,0-2.233-2.233v-6c0-1.4.419-1.815,1.954-1.815h64.07c1.815,0,2.373.558,2.233,2.233a45.1,45.1,0,0,0,0,6.142c0,1.4-.419,1.675-1.815,1.675C130.116,11.511,119.368,11.65,108.619,11.65Z" transform="translate(9044.523 1487.091)" fill="#823eb9"/>
      <path id="Caminho_229-2" data-name="Caminho 229" d="M132.751,15.3c-.838,1.256-1.535,2.233-2.094,3.071C119.49,32.748,108.184,47.126,97.017,61.5a3.98,3.98,0,0,1-3.35,1.675c-3.071-.14-6,0-9.073,0a12.888,12.888,0,0,1-2.094-.14q1.675-2.094,2.931-3.769c8.933-11.586,17.867-23.032,26.8-34.617,2.233-2.792,4.327-5.583,6.561-8.375.419-.419.977-.977,1.535-.977Z" transform="translate(9047.61 1492.514)" fill="#823eb9"/>
      <path id="Caminho_232-2" data-name="Caminho 232" d="M69.917,57.219H56.936a2.756,2.756,0,0,1-1.675-.838C48.84,50.24,42.558,44.1,36.138,37.956c-1.117-.977-1.117-1.535,0-2.513,1.675-1.4,3.35-3.071,4.886-4.606.977-1.117,1.675-1.117,2.792,0C51.073,38.1,58.471,45.354,65.869,52.473L70.2,56.8C70.057,56.94,69.917,57.08,69.917,57.219Z" transform="translate(9028.926 1498.334)" fill="#823eb9"/>
    </g>
  </g>
</svg>
