<svg xmlns="http://www.w3.org/2000/svg" width="770.343" height="769.225" viewBox="0 0 770.343 769.225">
  <g id="Grupo_16" data-name="Grupo 16" transform="translate(-1540 29)" opacity="0.08">
    <g id="_1ballMenor2" data-name="1ballMenor2" transform="translate(1540 -29)">
      <path id="Caminho_176" data-name="Caminho 176" d="M310.174,69.789a58.594,58.594,0,0,1-3.994,6.922c-5.857,7.188-17.572,7.455-24.228,1.065-6.922-6.656-6.123-17.572,1.6-24.494,6.656-5.857,17.305-4.526,22.9,2.929,1.6,2.13,2.662,4.26,3.994,6.39A64.865,64.865,0,0,0,310.174,69.789Z" transform="translate(459.902 80.91)" fill="#a409e3"/>
      <path id="Caminho_177" data-name="Caminho 177" d="M101.8,141.6c-19.435.266-41-13.312-41-39.67,0-24.494,18.37-42.066,41-42.332,22.1-.266,40.735,19.169,41,42.066C143.068,124.3,125.23,141.6,101.8,141.6Z" transform="translate(100.122 97.487)" fill="#a409e3"/>
      <path id="Caminho_178" data-name="Caminho 178" d="M100.808,280.5a41.187,41.187,0,0,1-41-41c-.532-22.9,17.306-40.735,40.468-41,23.429-.266,41.533,16.773,41.8,39.4C141.809,261.334,123.7,280.237,100.808,280.5Z" transform="translate(98.452 328.392)" fill="#a409e3"/>
      <path id="Caminho_179" data-name="Caminho 179" d="M198.3,240.2a40.35,40.35,0,0,1,39.4-41c23.163-.266,42.332,17.838,42.6,40.468.266,22.9-17.039,41-41.267,41.8C216.14,282.268,198.834,264.164,198.3,240.2Z" transform="translate(328.699 329.556)" fill="#a409e3"/>
      <path id="Caminho_180" data-name="Caminho 180" d="M165.284,278.735c-21.033.266-39.67-16.773-40.468-40.468-.8-23.429,17.306-41.267,41-41.267,20.5,0,39.936,14.377,41,38.072C207.616,259.832,188.181,279.268,165.284,278.735Z" transform="translate(206.499 325.9)" fill="#a409e3"/>
      <path id="Caminho_181" data-name="Caminho 181" d="M144.737,172.869c-.266,23.962-17.572,41.267-41,41C81.372,213.6,62.735,194.7,63,172.336c.266-20.767,16.507-40.2,41.8-40.735C129.828,131.335,145,152.1,144.737,172.869Z" transform="translate(103.778 217.179)" fill="#a409e3"/>
      <path id="Caminho_182" data-name="Caminho 182" d="M211.6,109.466c0,22.63-17.572,39.936-40.735,39.936-22.9,0-41-17.306-41.267-39.4,0-23.163,18.637-42.6,40.735-42.6C193.5,67.666,211.6,86.037,211.6,109.466Z" transform="translate(214.494 110.455)" fill="#a409e3"/>
      <path id="Caminho_183" data-name="Caminho 183" d="M274.237,172.967c0,22.9-18.637,40.735-42.332,41-22.364,0-39.67-18.1-39.4-41.533,0-22.9,17.572-40.735,39.936-40.735C255.867,131.7,274.237,150.071,274.237,172.967Z" transform="translate(319.057 217.347)" fill="#a409e3"/>
      <path id="Caminho_184" data-name="Caminho 184" d="M239.77,60.9c23.429.266,41.8,18.9,41.533,41.533-.266,21.832-18.637,41-44.2,40.468-21.565-.532-38.072-18.9-37.806-42.332C199.834,78.207,217.939,60.636,239.77,60.9Z" transform="translate(330.361 99.648)" fill="#a409e3"/>
      <path id="Caminho_185" data-name="Caminho 185" d="M94.3,265.019c-.266,17.305-14.111,31.416-31.416,30.617-15.442-.8-30.617-12.513-30.884-33.014-.266-16.507,13.844-29.286,31.15-29.02S94.568,247.979,94.3,265.019Z" transform="translate(52.243 386.741)" fill="#a409e3"/>
      <path id="Caminho_186" data-name="Caminho 186" d="M297.152,66.017c-.533,17.838-14.643,30.617-33.014,29.819-13.844-.532-29.819-14.377-29.02-33.014A30.123,30.123,0,0,1,265.735,33.8C283.573,34.335,297.684,48.978,297.152,66.017Z" transform="translate(389.858 54.596)" fill="#a409e3"/>
      <path id="Caminho_187" data-name="Caminho 187" d="M155.767,257.051c.266,16.773-13.312,30.085-30.884,30.085C108.377,287.136,94,272.493,94,255.187c0-16.773,13.046-30.085,29.286-30.085C141.391,224.836,155.5,238.68,155.767,257.051Z" transform="translate(155.313 372.611)" fill="#a409e3"/>
      <path id="Caminho_188" data-name="Caminho 188" d="M63.951,93.436C47.178,93.436,33.6,80.39,33.6,64.15c0-17.838,14.909-33.014,32.481-32.747C82.055,31.4,95.9,45.779,95.9,62.286,96.166,79.591,81.789,93.436,63.951,93.436Z" transform="translate(54.905 50.607)" fill="#a409e3"/>
      <path id="Caminho_189" data-name="Caminho 189" d="M256.951,172.6c16.507.266,30.085,14.377,29.819,31.416S272.127,234.9,254.555,234.9c-16.241,0-29.819-13.578-29.552-29.819C225,186.713,239.379,172.336,256.951,172.6Z" transform="translate(373.084 285.336)" fill="#a409e3"/>
      <path id="Caminho_190" data-name="Caminho 190" d="M225.4,125.421c-.266-16.241,13.046-29.552,29.819-29.819a31.593,31.593,0,0,1,32.215,31.15c.266,15.974-13.578,30.884-29.02,30.884C240.046,157.9,225.669,143.792,225.4,125.421Z" transform="translate(373.749 157.332)" fill="#a409e3"/>
      <path id="Caminho_191" data-name="Caminho 191" d="M157.436,71.451c.266,17.572-13.578,31.682-31.682,31.949-16.507.266-29.819-12.779-30.351-29.819-.266-17.039,13.844-32.215,30.884-32.481C144.39,41.1,157.968,55.211,157.436,71.451Z" transform="translate(157.638 66.734)" fill="#a409e3"/>
      <path id="Caminho_192" data-name="Caminho 192" d="M232.636,258.117c0,17.039-14.111,31.682-30.884,31.682s-31.416-13.844-31.15-30.351A32.447,32.447,0,0,1,202.817,227.5C219.324,227.5,232.636,240.812,232.636,258.117Z" transform="translate(282.65 376.603)" fill="#a409e3"/>
      <path id="Caminho_193" data-name="Caminho 193" d="M234.309,71.891c-.266,17.039-13.844,30.351-30.351,29.819-18.1-.532-32.481-15.442-31.949-33.014.532-16.241,14.909-29.819,31.416-29.286C220.731,39.676,234.841,54.585,234.309,71.891Z" transform="translate(284.971 63.899)" fill="#a409e3"/>
      <path id="Caminho_194" data-name="Caminho 194" d="M100.77,203.081c.266,16.507-12.513,29.553-29.286,29.819C53.912,232.9,39,219.322,39,202.282,38.736,184.977,52.314,170.6,69.087,170.6A32.1,32.1,0,0,1,100.77,203.081Z" transform="translate(63.88 282.013)" fill="#a409e3"/>
      <path id="Caminho_195" data-name="Caminho 195" d="M295.288,263.961c.8,17.838-13.312,32.481-32.481,32.747-14.377.266-28.488-10.916-29.286-29.552-.8-17.039,13.046-31.949,30.351-32.747C280.112,233.877,295.82,248.253,295.288,263.961Z" transform="translate(387.196 388.065)" fill="#a409e3"/>
      <path id="Caminho_196" data-name="Caminho 196" d="M71.251,94.5c17.039.266,30.351,13.312,30.085,29.819-.266,18.1-14.377,32.481-32.215,32.215-16.507-.266-30.085-14.377-29.819-31.15A31.649,31.649,0,0,1,71.251,94.5Z" transform="translate(64.378 155.503)" fill="#a409e3"/>
      <path id="Caminho_197" data-name="Caminho 197" d="M19.4,90.1c0-11.448,9.052-20.234,20.767-20.5C50.55,69.6,59.6,78.918,59.6,89.834s-9.052,20.767-19.435,20.5C30.316,110.068,19.666,103.146,19.4,90.1Z" transform="translate(31.299 114.112)" fill="#a409e3"/>
      <path id="Caminho_198" data-name="Caminho 198" d="M38.738,243.572A20.241,20.241,0,0,1,18.5,222.539c0-10.65,9.851-19.7,21.3-19.435,10.65.266,19.435,9.851,19.169,21.3A20.582,20.582,0,0,1,38.738,243.572Z" transform="translate(29.799 336.038)" fill="#a409e3"/>
      <path id="Caminho_199" data-name="Caminho 199" d="M225.5,19.5c11.448.266,20.234,9.585,19.968,21.3-.266,10.916-9.585,19.169-21.033,19.169-10.383-.266-19.7-9.851-19.435-20.234A20.807,20.807,0,0,1,225.5,19.5Z" transform="translate(339.835 30.827)" fill="#a409e3"/>
      <path id="Caminho_200" data-name="Caminho 200" d="M90.434,253.7c10.916,0,20.234,9.052,20.234,19.7,0,11.448-9.052,20.767-20.234,20.767S70.466,285.116,70.2,273.4C70.2,262.752,79.252,253.966,90.434,253.7Z" transform="translate(115.749 420.158)" fill="#a409e3"/>
      <path id="Caminho_201" data-name="Caminho 201" d="M223.238,296.336A20.282,20.282,0,0,1,203,275.835c0-10.916,9.318-19.435,20.5-19.435a19.661,19.661,0,0,1,19.968,19.435A20.284,20.284,0,0,1,223.238,296.336Z" transform="translate(336.51 424.646)" fill="#a409e3"/>
      <path id="Caminho_202" data-name="Caminho 202" d="M72.332,41.431a20.2,20.2,0,0,1,18.9-21.3c11.182-.8,20.5,7.987,21.3,19.435.8,10.65-7.987,19.968-18.9,21.033C84.046,61.4,72.065,52.346,72.332,41.431Z" transform="translate(119.208 31.793)" fill="#a409e3"/>
      <path id="Caminho_203" data-name="Caminho 203" d="M294.816,92.9c-.266,11.448-9.585,20.234-21.3,19.968-10.383-.266-19.435-10.117-18.9-20.767.266-10.916,9.585-19.968,20.234-19.7A19.894,19.894,0,0,1,294.816,92.9Z" transform="translate(422.279 118.763)" fill="#a409e3"/>
      <path id="Caminho_204" data-name="Caminho 204" d="M273.782,204.4c11.182.266,20.234,9.585,19.968,20.234a20.4,20.4,0,0,1-21.033,20.234c-10.65-.266-19.435-10.117-18.9-21.565C253.814,213.189,263.133,204.137,273.782,204.4Z" transform="translate(420.949 338.199)" fill="#a409e3"/>
      <path id="Caminho_205" data-name="Caminho 205" d="M13.2,26.8A18.865,18.865,0,0,1,32.373,7.9c11.182,0,20.5,9.851,20.234,21.033A18.871,18.871,0,0,1,33.7,47.3,20.018,20.018,0,0,1,13.2,26.8Z" transform="translate(20.989 11.543)" fill="#a409e3"/>
      <path id="Caminho_206" data-name="Caminho 206" d="M50.3,283.537c0,10.117-6.39,21.033-20.5,21.033-11.981,0-18.9-9.585-18.9-19.7,0-10.65,9.318-19.7,20.5-19.968A18.92,18.92,0,0,1,50.3,283.537Z" transform="translate(17.169 438.777)" fill="#a409e3"/>
      <path id="Caminho_207" data-name="Caminho 207" d="M306.673,32.473c0,11.182-9.851,20.767-20.767,20.5-10.383-.266-19.169-9.318-18.9-19.435.266-11.182,9.585-20.5,20.5-20.234A18.924,18.924,0,0,1,306.673,32.473Z" transform="translate(442.903 20.516)" fill="#a409e3"/>
      <path id="Caminho_208" data-name="Caminho 208" d="M304.307,284.87c-.266,10.916-8.52,19.169-19.435,18.9-11.448-.266-20.234-9.585-19.968-21.565.266-9.851,9.052-18.37,18.9-18.1C295.255,264.37,304.573,273.688,304.307,284.87Z" transform="translate(439.412 437.443)" fill="#a409e3"/>
      <path id="Caminho_209" data-name="Caminho 209" d="M292.207,263.247a16.374,16.374,0,1,1,0-32.747c9.052,0,16.507,7.188,16.507,15.974A16.479,16.479,0,0,1,292.207,263.247Z" transform="translate(457.369 381.591)" fill="#a409e3"/>
      <path id="Caminho_210" data-name="Caminho 210" d="M64.039,308.647A17.056,17.056,0,0,1,47,292.141c0-8.786,7.721-16.241,16.773-16.241a16.48,16.48,0,0,1,16.241,16.241C80.014,300.926,72.825,308.647,64.039,308.647Z" transform="translate(77.181 457.063)" fill="#a409e3"/>
      <path id="Caminho_211" data-name="Caminho 211" d="M263.514,18.677c0,8.52-7.987,15.974-16.507,15.974C238.221,34.385,230.5,27.2,230.5,18.943c0-9.318,7.721-17.306,17.039-17.039C256.325,1.638,263.514,9.359,263.514,18.677Z" transform="translate(382.229 1.564)" fill="#a409e3"/>
      <path id="Caminho_212" data-name="Caminho 212" d="M.471,244.611c-.8-10.65,8.786-16.241,16.241-16.507,8.52-.266,16.241,8.253,16.241,17.039-.266,8.52-7.721,16.507-16.241,16.241C9.789,261.117-.86,255.526.471,244.611Z" transform="translate(-0.357 377.597)" fill="#a409e3"/>
      <path id="Caminho_213" data-name="Caminho 213" d="M18.211,79.752C8.893,79.485,1.438,72.3,1.7,63.245A16.653,16.653,0,0,1,18.744,47a16.381,16.381,0,0,1-.532,32.747Z" transform="translate(1.871 76.538)" fill="#a409e3"/>
      <path id="Caminho_214" data-name="Caminho 214" d="M82.347,16.579A16.48,16.48,0,0,1,66.107,32.82,16.949,16.949,0,0,1,49.6,16.313C49.6,7.261,57.055.6,67.438.6,75.691.338,82.347,7.261,82.347,16.579Z" transform="translate(81.503 -0.597)" fill="#a409e3"/>
      <path id="Caminho_215" data-name="Caminho 215" d="M244.773,309.619c-11.714.533-16.773-8.786-16.773-16.773,0-8.52,7.987-15.708,16.507-15.442a16.3,16.3,0,0,1,16.241,16.241C261.014,302.165,254.091,310.418,244.773,309.619Z" transform="translate(378.073 459.552)" fill="#a409e3"/>
    </g>
    <g id="bolasmeio" transform="translate(1782.277 205.29)">
      <path id="Caminho_233" data-name="Caminho 233" d="M488.475,376.459c-.8,3.994-1.331,7.721-2.13,11.715-4.26,19.968-16.507,32.747-35.676,39.4-13.312,4.526-26.624,4.26-38.871-2.13-19.435-10.117-29.819-26.624-29.286-48.722.8-23.7,18.37-47.39,45.261-50.852,20.234-2.662,37.54,3.461,50.053,20.234a45.2,45.2,0,0,1,8.52,22.364c.266,2.4,1.331,4.526,2.13,6.922Z" transform="translate(-184.584 -325.275)" fill="#5909e3"/>
      <path id="Caminho_234" data-name="Caminho 234" d="M398.6,441.5h0Z" transform="translate(-157.808 -132.064)" fill="#5909e3"/>
      <path id="Caminho_235" data-name="Caminho 235" d="M406.2,359.518c33.812-1.065,66.56,26.624,63.631,67.092-2.13,30.884-24.76,57.774-62.832,58.306-36.741.533-62.566-33.812-62.3-65.228C344.967,386.675,372.656,358.454,406.2,359.518Z" transform="translate(-247.412 -268.399)" fill="#5909e3"/>
      <path id="Caminho_236" data-name="Caminho 236" d="M364.614,432.6c-23.961,1.6-53.514-22.1-53.514-54.313.266-28.221,23.429-51.384,52.715-51.384,29.553,0,52.449,23.429,52.715,54.046C416.8,409.966,392.037,433.129,364.614,432.6Z" transform="translate(-303.267 -322.574)" fill="#5909e3"/>
      <path id="Caminho_237" data-name="Caminho 237" d="M308.27,447.907c-1.864-24.228,19.7-47.391,43.4-51.384C378.824,392,405.98,410.633,411.3,438.588c5.857,29.819-16.241,59.1-46.858,62.034-25.825,2.4-49.254-15.974-54.579-37.54C308.8,458.29,308.8,452.965,308.27,447.907Z" transform="translate(-308.158 -207.959)" fill="#5909e3"/>
      <path id="Caminho_238" data-name="Caminho 238" d="M436.495,505.3c-31.416,2.929-51.65-24.228-54.046-44.728-3.727-29.819,19.169-57.774,50.319-58.839,26.624-1.065,50.319,16.507,53.514,46.592,1.6,15.176-2.13,28.754-12.513,40.468C463.651,499.971,451.138,506.893,436.495,505.3Z" transform="translate(-185.319 -198.256)" fill="#5909e3"/>
    </g>
  </g>
</svg>
