<svg xmlns="http://www.w3.org/2000/svg" width="66.057" height="66.057" viewBox="0 0 66.057 66.057">
  <g id="Grupo_134" data-name="Grupo 134" transform="translate(-531.902 -5285.101)">
    <ellipse id="Elipse_12" data-name="Elipse 12" cx="33.028" cy="33.028" rx="33.028" ry="33.028" transform="translate(531.902 5285.101)" fill="#1c214a"/>
    <g id="_1ballMenor2" data-name="1ballMenor2" transform="translate(548.619 5295.251)">
      <path id="Caminho_176" data-name="Caminho 176" d="M278.626,50.485a2.5,2.5,0,0,1-.17.295.722.722,0,0,1-1.031.045.7.7,0,0,1,.068-1.043.673.673,0,0,1,.975.125c.068.091.113.181.17.272A2.764,2.764,0,0,0,278.626,50.485Z" transform="translate(-245.849 -44.071)" fill="#f951ff"/>
      <path id="Caminho_177" data-name="Caminho 177" d="M62.545,63.089A1.672,1.672,0,0,1,60.8,61.4a1.752,1.752,0,0,1,1.745-1.8,1.793,1.793,0,0,1,1.745,1.79A1.681,1.681,0,0,1,62.545,63.089Z" transform="translate(-53.951 -52.913)" fill="#f951ff"/>
      <path id="Caminho_178" data-name="Caminho 178" d="M61.541,201.989a1.753,1.753,0,0,1-1.745-1.745,1.752,1.752,0,0,1,3.5-.068A1.8,1.8,0,0,1,61.541,201.989Z" transform="translate(-53.06 -176.072)" fill="#f951ff"/>
      <path id="Caminho_179" data-name="Caminho 179" d="M198.3,200.944a1.717,1.717,0,0,1,1.677-1.745,1.771,1.771,0,0,1,1.813,1.723,1.748,1.748,0,0,1-1.757,1.779A1.7,1.7,0,0,1,198.3,200.944Z" transform="translate(-175.868 -176.693)" fill="#f951ff"/>
      <path id="Caminho_180" data-name="Caminho 180" d="M126.514,200.479a1.735,1.735,0,0,1-1.722-1.722,1.747,1.747,0,0,1,3.49-.136A1.765,1.765,0,0,1,126.514,200.479Z" transform="translate(-110.689 -174.743)" fill="#f951ff"/>
      <path id="Caminho_181" data-name="Caminho 181" d="M66.478,133.356a1.691,1.691,0,0,1-1.745,1.745,1.751,1.751,0,1,1,.045-3.5A1.687,1.687,0,0,1,66.478,133.356Z" transform="translate(-55.9 -116.754)" fill="#f951ff"/>
      <path id="Caminho_182" data-name="Caminho 182" d="M133.09,69.19a1.684,1.684,0,0,1-1.734,1.7,1.713,1.713,0,0,1-1.757-1.677,1.8,1.8,0,0,1,1.734-1.813A1.766,1.766,0,0,1,133.09,69.19Z" transform="translate(-114.954 -59.83)" fill="#f951ff"/>
      <path id="Caminho_183" data-name="Caminho 183" d="M195.978,133.456a1.766,1.766,0,0,1-1.8,1.745,1.752,1.752,0,0,1,.023-3.5A1.756,1.756,0,0,1,195.978,133.456Z" transform="translate(-170.725 -116.843)" fill="#f951ff"/>
      <path id="Caminho_184" data-name="Caminho 184" d="M201.021,60.9a1.763,1.763,0,0,1,1.768,1.768,1.783,1.783,0,0,1-1.881,1.722,1.748,1.748,0,0,1,.113-3.49Z" transform="translate(-176.754 -54.065)" fill="#f951ff"/>
      <path id="Caminho_185" data-name="Caminho 185" d="M34.65,234.936a1.3,1.3,0,0,1-1.337,1.3A1.374,1.374,0,0,1,32,234.834a1.254,1.254,0,0,1,1.326-1.235A1.337,1.337,0,0,1,34.65,234.936Z" transform="translate(-28.413 -207.194)" fill="#f951ff"/>
      <path id="Caminho_186" data-name="Caminho 186" d="M237.731,35.17a1.3,1.3,0,0,1-1.405,1.269,1.374,1.374,0,0,1-1.235-1.405,1.282,1.282,0,0,1,1.3-1.235A1.361,1.361,0,0,1,237.731,35.17Z" transform="translate(-208.489 -30.036)" fill="#f951ff"/>
      <path id="Caminho_187" data-name="Caminho 187" d="M96.629,226.459a1.273,1.273,0,0,1-1.315,1.281A1.363,1.363,0,0,1,94,226.379a1.258,1.258,0,0,1,1.247-1.281A1.348,1.348,0,0,1,96.629,226.459Z" transform="translate(-83.388 -199.658)" fill="#f951ff"/>
      <path id="Caminho_188" data-name="Caminho 188" d="M34.892,34.039A1.268,1.268,0,0,1,33.6,32.793,1.4,1.4,0,0,1,34.983,31.4a1.321,1.321,0,0,1-.091,2.64Z" transform="translate(-29.833 -27.908)" fill="#f951ff"/>
      <path id="Caminho_189" data-name="Caminho 189" d="M226.359,172.6a1.312,1.312,0,0,1,1.269,1.337,1.358,1.358,0,0,1-1.371,1.315A1.265,1.265,0,0,1,225,173.981,1.355,1.355,0,0,1,226.359,172.6Z" transform="translate(-199.542 -153.107)" fill="#f951ff"/>
      <path id="Caminho_190" data-name="Caminho 190" d="M225.4,96.868a1.267,1.267,0,0,1,1.269-1.269,1.345,1.345,0,0,1,1.371,1.326,1.317,1.317,0,0,1-1.235,1.315A1.369,1.369,0,0,1,225.4,96.868Z" transform="translate(-199.896 -84.833)" fill="#f951ff"/>
      <path id="Caminho_191" data-name="Caminho 191" d="M98.039,42.392a1.34,1.34,0,0,1-1.349,1.36A1.279,1.279,0,0,1,95.4,42.483,1.375,1.375,0,0,1,96.713,41.1,1.285,1.285,0,0,1,98.039,42.392Z" transform="translate(-84.628 -36.51)" fill="#f951ff"/>
      <path id="Caminho_192" data-name="Caminho 192" d="M173.239,228.8a1.353,1.353,0,0,1-1.315,1.348,1.321,1.321,0,0,1-1.326-1.292,1.381,1.381,0,0,1,1.371-1.36A1.275,1.275,0,0,1,173.239,228.8Z" transform="translate(-151.307 -201.787)" fill="#f951ff"/>
      <path id="Caminho_193" data-name="Caminho 193" d="M174.647,40.777a1.265,1.265,0,0,1-1.292,1.269A1.388,1.388,0,0,1,172,40.641a1.315,1.315,0,0,1,1.337-1.247A1.352,1.352,0,0,1,174.647,40.777Z" transform="translate(-152.544 -34.998)" fill="#f951ff"/>
      <path id="Caminho_194" data-name="Caminho 194" d="M41.628,171.983a1.241,1.241,0,0,1-1.247,1.269,1.351,1.351,0,0,1-1.383-1.3,1.309,1.309,0,0,1,1.281-1.349A1.366,1.366,0,0,1,41.628,171.983Z" transform="translate(-34.62 -151.335)" fill="#f951ff"/>
      <path id="Caminho_195" data-name="Caminho 195" d="M236.118,235.653a1.348,1.348,0,0,1-1.383,1.394,1.25,1.25,0,0,1-1.247-1.258,1.357,1.357,0,0,1,1.292-1.394A1.318,1.318,0,0,1,236.118,235.653Z" transform="translate(-207.069 -207.9)" fill="#f951ff"/>
      <path id="Caminho_196" data-name="Caminho 196" d="M40.659,94.5a1.262,1.262,0,0,1,1.281,1.269,1.361,1.361,0,0,1-1.371,1.371A1.309,1.309,0,0,1,39.3,95.813,1.347,1.347,0,0,1,40.659,94.5Z" transform="translate(-34.886 -83.858)" fill="#f951ff"/>
      <path id="Caminho_197" data-name="Caminho 197" d="M19.4,70.473a.875.875,0,0,1,.884-.873.868.868,0,0,1,0,1.734A.878.878,0,0,1,19.4,70.473Z" transform="translate(-17.242 -61.78)" fill="#f951ff"/>
      <path id="Caminho_198" data-name="Caminho 198" d="M19.359,204.821a.862.862,0,0,1-.861-.9.862.862,0,1,1,.861.9Z" transform="translate(-16.442 -180.15)" fill="#f951ff"/>
      <path id="Caminho_199" data-name="Caminho 199" d="M205.871,19.5a.862.862,0,1,1-.873.861A.886.886,0,0,1,205.871,19.5Z" transform="translate(-181.808 -17.358)" fill="#f951ff"/>
      <path id="Caminho_200" data-name="Caminho 200" d="M71.061,253.7a.864.864,0,0,1,.861.839.862.862,0,1,1-1.722,0A.864.864,0,0,1,71.061,253.7Z" transform="translate(-62.285 -225.018)" fill="#f951ff"/>
      <path id="Caminho_201" data-name="Caminho 201" d="M203.859,258.1a.863.863,0,0,1-.861-.873.85.85,0,0,1,.873-.827.837.837,0,0,1,.85.827A.863.863,0,0,1,203.859,258.1Z" transform="translate(-180.034 -227.412)" fill="#f951ff"/>
      <path id="Caminho_202" data-name="Caminho 202" d="M72.283,20.99a.857.857,0,1,1,1.711-.079.871.871,0,0,1-.8.9A.884.884,0,0,1,72.283,20.99Z" transform="translate(-64.131 -17.873)" fill="#f951ff"/>
      <path id="Caminho_203" data-name="Caminho 203" d="M256.3,73.271a.856.856,0,1,1-.85-.873A.847.847,0,0,1,256.3,73.271Z" transform="translate(-225.781 -64.261)" fill="#f951ff"/>
      <path id="Caminho_204" data-name="Caminho 204" d="M254.642,204.4a.862.862,0,1,1-.85.8A.84.84,0,0,1,254.642,204.4Z" transform="translate(-225.072 -181.303)" fill="#f951ff"/>
      <path id="Caminho_205" data-name="Caminho 205" d="M13.2,8.7a.8.8,0,0,1,.816-.8.883.883,0,0,1,.861.9.8.8,0,0,1-.8.782A.852.852,0,0,1,13.2,8.7Z" transform="translate(-11.743 -7.072)" fill="#f951ff"/>
      <path id="Caminho_206" data-name="Caminho 206" d="M12.577,265.693a.848.848,0,0,1-.873.9.8.8,0,0,1-.8-.839.884.884,0,0,1,.873-.85A.805.805,0,0,1,12.577,265.693Z" transform="translate(-9.705 -234.949)" fill="#f951ff"/>
      <path id="Caminho_207" data-name="Caminho 207" d="M268.687,14.114a.89.89,0,0,1-.884.873.835.835,0,0,1-.8-.827.878.878,0,0,1,.873-.861A.805.805,0,0,1,268.687,14.114Z" transform="translate(-236.782 -11.859)" fill="#f951ff"/>
      <path id="Caminho_208" data-name="Caminho 208" d="M266.575,264.982a.8.8,0,0,1-.827.8.872.872,0,0,1-.85-.918.809.809,0,0,1,.8-.771A.883.883,0,0,1,266.575,264.982Z" transform="translate(-234.92 -234.237)" fill="#f951ff"/>
      <path id="Caminho_209" data-name="Caminho 209" d="M276.4,231.894a.7.7,0,1,1,0-1.394.694.694,0,0,1,.7.68A.7.7,0,0,1,276.4,231.894Z" transform="translate(-244.498 -204.447)" fill="#f951ff"/>
      <path id="Caminho_210" data-name="Caminho 210" d="M47.725,277.294a.726.726,0,0,1-.725-.7.714.714,0,0,1,.714-.691.7.7,0,0,1,.011,1.394Z" transform="translate(-41.714 -244.702)" fill="#f951ff"/>
      <path id="Caminho_211" data-name="Caminho 211" d="M231.905,2.612a.7.7,0,0,1-1.405.011.723.723,0,0,1,.725-.725A.69.69,0,0,1,231.905,2.612Z" transform="translate(-204.42 -1.75)" fill="#f951ff"/>
      <path id="Caminho_212" data-name="Caminho 212" d="M.362,228.8a.682.682,0,0,1,.691-.7.732.732,0,0,1,.691.725.717.717,0,0,1-.691.691A.685.685,0,0,1,.362,228.8Z" transform="translate(-0.357 -202.317)" fill="#f951ff"/>
      <path id="Caminho_213" data-name="Caminho 213" d="M2.4,48.392a.7.7,0,0,1-.7-.7A.709.709,0,0,1,2.423,47,.7.7,0,0,1,2.4,48.392Z" transform="translate(-1.546 -41.739)" fill="#f951ff"/>
      <path id="Caminho_214" data-name="Caminho 214" d="M50.994,1.277a.7.7,0,0,1-.691.691.721.721,0,0,1-.7-.7A.7.7,0,0,1,50.359.6.638.638,0,0,1,50.994,1.277Z" transform="translate(-44.02 -0.597)" fill="#f951ff"/>
      <path id="Caminho_215" data-name="Caminho 215" d="M228.714,278.769a.67.67,0,0,1-.714-.714.7.7,0,0,1,1.394.034A.648.648,0,0,1,228.714,278.769Z" transform="translate(-202.203 -246.03)" fill="#f951ff"/>
    </g>
    <g id="bolasmeio" transform="translate(558.932 5305.223)">
      <path id="Caminho_233" data-name="Caminho 233" d="M387,327.454c-.034.17-.057.329-.091.5a2.165,2.165,0,0,1-1.518,1.677,2.049,2.049,0,0,1-1.655-.091,2.155,2.155,0,0,1-1.247-2.074,2.258,2.258,0,0,1,1.927-2.165,2.144,2.144,0,0,1,2.13.861,1.923,1.923,0,0,1,.363.952,1.468,1.468,0,0,0,.091.295Z" transform="translate(-374.069 -325.275)" fill="#ad95ff"/>
      <path id="Caminho_234" data-name="Caminho 234" d="M398.6,441.5h0Z" transform="translate(-388.351 -428.329)" fill="#ad95ff"/>
      <path id="Caminho_235" data-name="Caminho 235" d="M347.317,359.49a2.635,2.635,0,0,1,2.708,2.856,2.6,2.6,0,0,1-2.674,2.482,2.753,2.753,0,0,1-2.652-2.776A2.585,2.585,0,0,1,347.317,359.49Z" transform="translate(-340.558 -355.612)" fill="#ad95ff"/>
      <path id="Caminho_236" data-name="Caminho 236" d="M313.378,331.4a2.34,2.34,0,0,1-2.278-2.312,2.223,2.223,0,0,1,2.244-2.187,2.248,2.248,0,0,1,2.244,2.3A2.2,2.2,0,0,1,313.378,331.4Z" transform="translate(-310.767 -326.716)" fill="#ad95ff"/>
      <path id="Caminho_237" data-name="Caminho 237" d="M308.163,398.062a2.21,2.21,0,0,1,4.386-.4,2.223,2.223,0,0,1-4.318,1.043A5.921,5.921,0,0,1,308.163,398.062Z" transform="translate(-308.158 -387.849)" fill="#ad95ff"/>
      <path id="Caminho_238" data-name="Caminho 238" d="M384.368,406.093a2.193,2.193,0,0,1-2.3-1.9,2.242,2.242,0,0,1,2.142-2.5,2.239,2.239,0,0,1,1.745,3.706A1.851,1.851,0,0,1,384.368,406.093Z" transform="translate(-373.677 -393.024)" fill="#ad95ff"/>
    </g>
    <path id="Caminho_223" data-name="Caminho 223" d="M11.654,1.989l-.75.75-7.659,7.5a.584.584,0,0,1-.464.2c-.428-.018-.857,0-1.285-.018a.8.8,0,0,1-.2-.054,1.3,1.3,0,0,1,.089-.161c.821-.8,1.66-1.607,2.481-2.41C4.406,7.274,4.942,6.738,5.46,6.2a.227.227,0,0,0,0-.214.685.685,0,0,0-.2-.2C4.014,4.56,2.764,3.346,1.5,2.114a1.57,1.57,0,0,0-.107-.179A.254.254,0,0,1,1.5,1.9c.518,0,1.018,0,1.535.018a.576.576,0,0,1,.375.143c.964.946,1.91,1.892,2.874,2.839.268.268.25.25.518-.018.75-.75,1.517-1.5,2.267-2.249l.625-.625A.32.32,0,0,1,9.869,1.9h1.75C11.619,1.936,11.636,1.954,11.654,1.989Z" transform="translate(552.905 5330.148)" fill="#fff"/>
    <path id="Caminho_228" data-name="Caminho 228" d="M79.038,2.885H74.986c-.286,0-.286,0-.286-.286V1.832c0-.179.054-.232.25-.232h8.194c.232,0,.3.071.286.286a5.769,5.769,0,0,0,0,.785c0,.179-.054.214-.232.214C81.787,2.868,80.413,2.885,79.038,2.885Z" transform="translate(492.608 5330.395)" fill="#fff"/>
    <path id="Caminho_229" data-name="Caminho 229" d="M88.927,15.3c-.107.161-.2.286-.268.393-1.428,1.839-2.874,3.678-4.3,5.516a.509.509,0,0,1-.428.214c-.393-.018-.768,0-1.16,0a1.648,1.648,0,0,1-.268-.018q.214-.268.375-.482c1.143-1.482,2.285-2.946,3.428-4.427.286-.357.553-.714.839-1.071.054-.054.125-.125.2-.125Z" transform="translate(486.201 5319.141)" fill="#fff"/>
    <path id="Caminho_232" data-name="Caminho 232" d="M39.727,33.481h-1.66a.352.352,0,0,1-.214-.107c-.821-.785-1.625-1.571-2.446-2.356-.143-.125-.143-.2,0-.321.214-.179.428-.393.625-.589.125-.143.214-.143.357,0,.928.928,1.874,1.857,2.821,2.767l.553.553C39.745,33.445,39.727,33.463,39.727,33.481Z" transform="translate(524.975 5307.064)" fill="#fff"/>
  </g>
</svg>
