<svg id="kuyjf3vea2hg34taa-horizontal_default_slate_blue" xmlns="http://www.w3.org/2000/svg" width="158.63" height="40.017" viewBox="0 0 158.63 40.017">
  <path id="Caminho_239" data-name="Caminho 239" d="M11.85,4.123C10.3,2.281,8.96.41,8.687.022a.069.069,0,0,0-.1,0c-.273.389-1.61,2.26-3.163,4.1-13.327,17,2.1,28.467,2.1,28.467l.129.086c.115,1.77.4,4.318.4,4.318H9.2s.288-2.533.4-4.318l.129-.1C9.751,32.591,25.177,21.12,11.85,4.123ZM8.63,32.331a6.374,6.374,0,0,1-.877-.892V31.41L8.587,12.9a.043.043,0,1,1,.086,0L9.507,31.41v.029A6.373,6.373,0,0,1,8.63,32.331Z" transform="translate(0 0)" fill="#001e2b"/>
  <path id="Caminho_240" data-name="Caminho 240" d="M191.588,104.743l-6.428-15.7L185.145,89h-5v1.055h.807a.912.912,0,0,1,.908.925l-.144,15.8a.922.922,0,0,1-.894.911l-.822.014v1.041h4.872v-1.041l-.5-.014a.922.922,0,0,1-.894-.911V91.891l7,16.857a.634.634,0,0,0,1.182,0l6.846-16.481.1,14.515a.927.927,0,0,1-.908.925h-.519v1.041h5.707v-1.041h-.778a.934.934,0,0,1-.908-.911l-.043-15.8a.925.925,0,0,1,.894-.925l.836-.014V89h-4.872Z" transform="translate(-154.089 -76.189)" fill="#001e2b"/>
  <path id="Caminho_241" data-name="Caminho 241" d="M489.8,139.106a.874.874,0,0,1-.246-.637v-7.762a4.557,4.557,0,0,0-1.3-3.461A4.861,4.861,0,0,0,484.743,126a5.578,5.578,0,0,0-4.841,2.491.112.112,0,0,1-.1.043.068.068,0,0,1-.072-.072l-.535-2.071h-.9l-2.3,1.318v.724h.592a.967.967,0,0,1,.665.217.853.853,0,0,1,.246.666v9.138a.843.843,0,0,1-.881.883h-.578v1.057h5.289v-1.057h-.578a.843.843,0,0,1-.882-.883V132.4a5.873,5.873,0,0,1,.491-2.288,4.58,4.58,0,0,1,1.474-1.839,3.825,3.825,0,0,1,2.326-.71,2.649,2.649,0,0,1,2.254.956,4,4,0,0,1,.723,2.447v7.473a.843.843,0,0,1-.882.883h-.578v1.057h5.289v-1.057h-.578A.727.727,0,0,1,489.8,139.106Z" transform="translate(-407.481 -107.863)" fill="#001e2b"/>
  <path id="Caminho_242" data-name="Caminho 242" d="M837.738,90.182A10.225,10.225,0,0,0,832.88,89H826v1.052h.674a.977.977,0,0,1,.717.332,1.019,1.019,0,0,1,.33.721v15.511a1.019,1.019,0,0,1-.33.721,1.008,1.008,0,0,1-.717.331H826v1.052h6.88a10.224,10.224,0,0,0,4.859-1.182,8.873,8.873,0,0,0,3.511-3.4,11.266,11.266,0,0,0,0-10.524A8.943,8.943,0,0,0,837.738,90.182Zm2.049,8.664a10.118,10.118,0,0,1-.975,4.656,6.576,6.576,0,0,1-2.565,2.8,6.956,6.956,0,0,1-3.5.908h-1.39a.976.976,0,0,1-.717-.332,1.019,1.019,0,0,1-.33-.721V91.523a.988.988,0,0,1,.33-.721,1.008,1.008,0,0,1,.717-.332h1.39a6.956,6.956,0,0,1,3.5.908,6.575,6.575,0,0,1,2.565,2.8A10.265,10.265,0,0,1,839.788,98.846Z" transform="translate(-707.1 -76.189)" fill="#001e2b"/>
  <path id="Caminho_243" data-name="Caminho 243" d="M968.391,99.9a6.392,6.392,0,0,0-3.308-1.687c1.994-.995,3.019-2.393,3.019-4.195a4.478,4.478,0,0,0-.78-2.609,5.186,5.186,0,0,0-2.2-1.773A8.024,8.024,0,0,0,961.845,89h-7.787v1.052h.621a.988.988,0,0,1,.722.332,1.015,1.015,0,0,1,.332.721v15.511a1.145,1.145,0,0,1-1.055,1.052H954v1.052h8.453a9.579,9.579,0,0,0,3.568-.649,5.8,5.8,0,0,0,2.572-1.9,4.9,4.9,0,0,0,.953-3.042A4.829,4.829,0,0,0,968.391,99.9ZM958.7,106.89a1.015,1.015,0,0,1-.332-.721V99.206h4.017a4.514,4.514,0,0,1,3.25,1.081,3.72,3.72,0,0,1,1.127,2.811,4.369,4.369,0,0,1-.491,1.989,3.792,3.792,0,0,1-1.488,1.528,4.621,4.621,0,0,1-2.4.591h-2.963A1.026,1.026,0,0,1,958.7,106.89Zm-.318-9.168V91.537a.984.984,0,0,1,.332-.721,1.02,1.02,0,0,1,.723-.332h1.907a4.035,4.035,0,0,1,3.02,1.009,3.656,3.656,0,0,1,.953,2.609,3.819,3.819,0,0,1-.9,2.638,3.454,3.454,0,0,1-2.673.98Z" transform="translate(-816.674 -76.189)" fill="#001e2b"/>
  <path id="Caminho_244" data-name="Caminho 244" d="M366.94,126.92a7.564,7.564,0,0,0-3.671-.92,7.369,7.369,0,0,0-3.671.92,6.777,6.777,0,0,0-2.624,2.586,8.034,8.034,0,0,0,0,7.672,6.778,6.778,0,0,0,2.624,2.586,7.565,7.565,0,0,0,3.671.919,7.37,7.37,0,0,0,3.671-.919,6.778,6.778,0,0,0,2.624-2.586,8.033,8.033,0,0,0,0-7.672A6.777,6.777,0,0,0,366.94,126.92ZM368,133.341a6.472,6.472,0,0,1-1.291,4.238,4.564,4.564,0,0,1-6.882,0,7.6,7.6,0,0,1,0-8.476,4.564,4.564,0,0,1,6.882,0A6.472,6.472,0,0,1,368,133.341Z" transform="translate(-304.755 -107.863)" fill="#001e2b"/>
  <path id="Caminho_245" data-name="Caminho 245" d="M719.94,126.92a7.564,7.564,0,0,0-3.671-.92,7.37,7.37,0,0,0-3.671.92,6.777,6.777,0,0,0-2.624,2.586,8.033,8.033,0,0,0,0,7.672,6.778,6.778,0,0,0,2.624,2.586,7.565,7.565,0,0,0,3.671.919,7.371,7.371,0,0,0,3.671-.919,6.779,6.779,0,0,0,2.624-2.586,8.034,8.034,0,0,0,0-7.672A6.876,6.876,0,0,0,719.94,126.92ZM721,133.341a6.472,6.472,0,0,1-1.291,4.238,4.564,4.564,0,0,1-6.882,0,7.6,7.6,0,0,1,0-8.476,4.564,4.564,0,0,1,6.882,0A6.553,6.553,0,0,1,721,133.341Z" transform="translate(-606.941 -107.863)" fill="#001e2b"/>
  <path id="Caminho_246" data-name="Caminho 246" d="M604.426,126a6.8,6.8,0,0,0-3.162.736,5.6,5.6,0,0,0-2.238,2.006,5.089,5.089,0,0,0-.809,2.771,4.882,4.882,0,0,0,.621,2.454,5.556,5.556,0,0,0,1.646,1.79l-2.065,2.8a1.133,1.133,0,0,0-.1,1.183,1.12,1.12,0,0,0,1.011.621h.592a4.319,4.319,0,0,0-1.357,1.4,3.7,3.7,0,0,0-.563,1.934,3.569,3.569,0,0,0,1.632,3.031,7.588,7.588,0,0,0,4.462,1.155,10.773,10.773,0,0,0,3.711-.635,6.523,6.523,0,0,0,2.787-1.847,4.3,4.3,0,0,0,1.069-2.915,3.338,3.338,0,0,0-1.444-2.829,6.386,6.386,0,0,0-3.913-1.039h-5.776a.051.051,0,0,1-.029-.015s-.014-.029,0-.043l1.5-2.021a5.311,5.311,0,0,0,1.112.375,5.781,5.781,0,0,0,1.17.1,7.054,7.054,0,0,0,3.263-.736,5.775,5.775,0,0,0,2.267-2.006,4.984,4.984,0,0,0,.823-2.771,5.27,5.27,0,0,0-1.935-4.012.014.014,0,0,1,.015-.014l3.1.346V126.39h-4.967A8.053,8.053,0,0,0,604.426,126Zm1.733,9.035a3.731,3.731,0,0,1-1.733.447,3.607,3.607,0,0,1-2.542-1.025,4.544,4.544,0,0,1,0-5.889,3.608,3.608,0,0,1,2.542-1.025,3.575,3.575,0,0,1,3.09,1.775,4.292,4.292,0,0,1,.534,2.194,4.084,4.084,0,0,1-.534,2.194A3.422,3.422,0,0,1,606.159,135.035Zm-3.913,5.311h3.913a2.988,2.988,0,0,1,2.238.678,2.47,2.47,0,0,1,.693,1.8,3.106,3.106,0,0,1-1.256,2.569,5.343,5.343,0,0,1-3.35.981,5.094,5.094,0,0,1-2.96-.794,2.686,2.686,0,0,1-1.112-2.324,3.1,3.1,0,0,1,.52-1.746A3.3,3.3,0,0,1,602.245,140.346Z" transform="translate(-511.92 -107.863)" fill="#001e2b"/>
  <path id="Caminho_247" data-name="Caminho 247" d="M1076.914,204.358A1.764,1.764,0,0,1,1076,202.8a1.8,1.8,0,0,1,.243-.907,1.648,1.648,0,0,1,.671-.652,2.023,2.023,0,0,1,1.915,0,1.763,1.763,0,0,1,.914,1.558,1.8,1.8,0,0,1-.243.907,1.648,1.648,0,0,1-.671.652,1.961,1.961,0,0,1-.957.241A1.852,1.852,0,0,1,1076.914,204.358Zm1.758-.2a1.487,1.487,0,0,0,.557-.553,1.731,1.731,0,0,0,0-1.615,1.316,1.316,0,0,0-.557-.553,1.714,1.714,0,0,0-1.6,0,1.49,1.49,0,0,0-.557.553,1.73,1.73,0,0,0,0,1.615,1.316,1.316,0,0,0,.557.553,1.676,1.676,0,0,0,.8.2A1.635,1.635,0,0,0,1078.672,204.16Zm-1.572-.5v-.128l.029-.014h.086a.11.11,0,0,0,.071-.028.077.077,0,0,0,.029-.071v-1.318a.107.107,0,0,0-.029-.071.079.079,0,0,0-.071-.028h-.086l-.029-.014v-.128l.029-.014h.743a.773.773,0,0,1,.5.142.461.461,0,0,1,.186.4.435.435,0,0,1-.143.34.564.564,0,0,1-.357.17l.171.057.328.524a.109.109,0,0,0,.1.057h.085l.014.014v.127l-.014.014h-.442l-.029-.014-.458-.765h-.114v.51a.108.108,0,0,0,.029.071.079.079,0,0,0,.071.028h.087l.029.014v.128l-.029.014h-.757Zm.728-.935a.339.339,0,0,0,.272-.1.39.39,0,0,0,.1-.269.412.412,0,0,0-.085-.269.3.3,0,0,0-.243-.1h-.057a.106.106,0,0,0-.071.028.077.077,0,0,0-.029.071v.638Z" transform="translate(-921.113 -172.067)" fill="#001e2b"/>
</svg>
