<svg xmlns="http://www.w3.org/2000/svg" xmlns:xlink="http://www.w3.org/1999/xlink" width="109.971" height="110.324" viewBox="0 0 109.971 110.324">
  <defs>
    <linearGradient id="linear-gradient" x1="0.072" y1="-0.02" x2="0.646" y2="1.109" gradientUnits="objectBoundingBox">
      <stop offset="0" stop-color="#6909e3"/>
      <stop offset="0" stop-color="#9309e2"/>
      <stop offset="1" stop-color="#00058f"/>
    </linearGradient>
  </defs>
  <g id="Grupo_122" data-name="Grupo 122" transform="translate(-8834 -4443)">
    <rect id="bg" width="110.324" height="109.971" rx="54.985" transform="translate(8834 4553.324) rotate(-90)" fill="url(#linear-gradient)"/>
    <g id="_7816081241599780996_3_" data-name="7816081241599780996 (3)" transform="translate(8875 4507.603)">
      <g id="Grupo_88416" data-name="Grupo 88416" transform="translate(-6 -29.603)">
        <g id="Grupo_88414" data-name="Grupo 88414" transform="translate(0)">
          <path id="Caminho_122883" data-name="Caminho 122883" d="M28.689,7.468a19.714,19.714,0,0,0-16.569,30.4l-3,6.6a1.722,1.722,0,0,0,2.024,2.372L19.4,44.578a19.718,19.718,0,1,0,9.287-37.11Zm0,35.989a16.258,16.258,0,0,1-8.2-2.216,1.722,1.722,0,0,0-1.323-.172l-5.392,1.479,1.877-4.138a1.722,1.722,0,0,0-.171-1.72,16.272,16.272,0,1,1,13.2,6.76Z" transform="translate(-8.97 -7.468)" fill="#fff" fill-rule="evenodd"/>
        </g>
        <g id="Grupo_88415" data-name="Grupo 88415" transform="translate(10.132 10.717)">
          <path id="Caminho_122884" data-name="Caminho 122884" d="M152.9,153.422a3.38,3.38,0,0,0-2.873-.648c-.746.306-1.223,1.473-1.706,2.07a.716.716,0,0,1-.927.2,13.013,13.013,0,0,1-6.494-5.567.8.8,0,0,1,.1-1.088,4.39,4.39,0,0,0,1.179-1.915,4.189,4.189,0,0,0-.527-2.267,5.369,5.369,0,0,0-1.674-2.523,2.3,2.3,0,0,0-2.491.37,5.056,5.056,0,0,0-1.752,4.006,5.687,5.687,0,0,0,.157,1.271,10.521,10.521,0,0,0,1.219,2.809,22.144,22.144,0,0,0,1.273,1.937,19.652,19.652,0,0,0,5.522,5.126,16.7,16.7,0,0,0,3.444,1.636,7.651,7.651,0,0,0,4.008.632,4.852,4.852,0,0,0,3.635-2.7,2.35,2.35,0,0,0,.169-1.38C154.955,154.454,153.668,153.883,152.9,153.422Z" transform="translate(-135.732 -141.47)" fill="#fff" fill-rule="evenodd"/>
        </g>
      </g>
    </g>
  </g>
</svg>
