<svg id="mysql" xmlns="http://www.w3.org/2000/svg" width="110.406" height="75.179" viewBox="0 0 110.406 75.179">
  <path id="Caminho_248" data-name="Caminho 248" d="M26.54,176.578H22.28q-.225-10.814-1.244-20.339H21l-6.486,20.339H11.27L4.823,156.239H4.785q-.717,9.148-.9,20.339H0q.376-13.611,1.885-25.52H7.16l6.146,18.751h.038l6.184-18.751h5.052q1.659,13.949,1.96,25.52m18.48-18.828q-2.6,14.156-6.863,20.574-3.32,4.945-7.277,4.945a7.147,7.147,0,0,1-2.6-.635v-2.275a12.321,12.321,0,0,0,1.772.113,4.278,4.278,0,0,0,2.979-1.022,3.729,3.729,0,0,0,1.357-2.8,18.674,18.674,0,0,0-1.056-4.347L28.655,157.75H32.84L36.2,168.636a14.727,14.727,0,0,1,.942,5.181,71.225,71.225,0,0,0,3.847-16.068h4.034" transform="translate(0.004 -108.089)" fill="#00758f"/>
  <g id="Grupo_23" data-name="Grupo 23" transform="translate(47.701 42.59)">
    <path id="Caminho_249" data-name="Caminho 249" d="M183.67,168.646a6.782,6.782,0,0,1-2.374,5.331,9.336,9.336,0,0,1-6.37,2.078,12.747,12.747,0,0,1-7.239-2.383l1.093-2.192a12.384,12.384,0,0,0,5.466,1.511,5.726,5.726,0,0,0,3.6-1.018,3.478,3.478,0,0,0,1.385-2.834c0-1.515-1.054-2.81-2.988-3.9-1.785-.983-5.353-3.033-5.353-3.033a6.117,6.117,0,0,1-2.9-5.431,6.355,6.355,0,0,1,2.166-5.01,8.16,8.16,0,0,1,5.6-1.911,11.567,11.567,0,0,1,6.447,1.892l-.983,2.19a12.453,12.453,0,0,0-4.9-1.057,4.354,4.354,0,0,0-3.015.947,3.163,3.163,0,0,0-1.142,2.418c0,1.511,1.077,2.822,3.065,3.93,1.808.983,5.463,3.073,5.463,3.073a6.033,6.033,0,0,1,2.979,5.394" transform="translate(-167.687 -149.821)" fill="#f29111"/>
    <path id="Caminho_250" data-name="Caminho 250" d="M235.943,170.52q-1.547-2.5-1.547-8.014,0-9.639,5.844-9.641a4.9,4.9,0,0,1,4.488,2.306q1.545,2.5,1.546,7.94,0,9.716-5.844,9.718a4.9,4.9,0,0,1-4.486-2.308m15.157,5.72-4.678-2.313a8.755,8.755,0,0,0,1.17-1.14q2.98-3.512,2.98-10.395,0-12.664-9.916-12.666a9.377,9.377,0,0,0-7.579,3.215q-2.98,3.516-2.979,10.358,0,6.729,2.639,9.867,2.4,2.834,7.273,2.835a11.707,11.707,0,0,0,3.332-.449l6.092,3.555,1.661-2.868" transform="translate(-212.345 -149.727)" fill="#f29111" fill-rule="evenodd"/>
    <path id="Caminho_251" data-name="Caminho 251" d="M327.174,176.578h-12.1v-25.52h4.073v22.381h8.03Zm2.9,0h.675v-2.6h.883v-.53h-2.475v.53h.917Zm5.135,0h.636v-3.127h-.957l-.779,2.131-.848-2.131h-.922v3.127h.6V174.2h.034l.888,2.38h.459l.886-2.38Z" transform="translate(-273.148 -150.679)" fill="#f29111"/>
  </g>
  <g id="Grupo_24" data-name="Grupo 24" transform="translate(65.191 0)">
    <path id="Caminho_252" data-name="Caminho 252" d="M270.823,34.422a14.182,14.182,0,0,0-5.966.863c-.461.185-1.2.185-1.262.771.247.246.277.647.494.987a7.183,7.183,0,0,0,1.6,1.881c.646.494,1.292.985,1.969,1.417,1.2.744,2.552,1.173,3.719,1.914.679.431,1.353.986,2.032,1.45.337.246.55.648.983.8v-.093c-.217-.277-.277-.678-.491-.988-.307-.306-.615-.585-.923-.892a14.673,14.673,0,0,0-3.2-3.113c-.985-.68-3.139-1.605-3.537-2.743l-.063-.063a12.382,12.382,0,0,0,2.123-.5c1.044-.277,2-.214,3.074-.491.493-.124.985-.279,1.479-.431v-.28c-.557-.554-.955-1.295-1.539-1.819a41.2,41.2,0,0,0-5.075-3.793c-.955-.617-2.185-1.016-3.2-1.541-.367-.185-.981-.277-1.2-.587a12.362,12.362,0,0,1-1.262-2.374c-.891-1.694-1.754-3.574-2.521-5.365a32.956,32.956,0,0,0-1.568-3.514,31.034,31.034,0,0,0-11.9-11.532,14.715,14.715,0,0,0-3.935-1.265c-.77-.032-1.538-.092-2.307-.123a12.208,12.208,0,0,1-1.415-1.081c-1.754-1.109-6.272-3.514-7.565-.339-.831,2.005,1.23,3.978,1.938,5a14.475,14.475,0,0,1,1.567,2.312c.215.524.277,1.08.493,1.634a36.745,36.745,0,0,0,1.6,4.133,14.567,14.567,0,0,0,1.136,1.91c.248.341.678.493.77,1.05a8.867,8.867,0,0,0-.708,2.312c-1.107,3.485-.677,7.8.892,10.36.491.771,1.661,2.467,3.229,1.818,1.384-.554,1.076-2.311,1.476-3.852.092-.373.03-.617.214-.863v.062c.43.862.862,1.693,1.262,2.559a17.6,17.6,0,0,0,4,4.13c.736.557,1.321,1.512,2.243,1.852V35.9h-.06a3.391,3.391,0,0,0-.708-.616,15.194,15.194,0,0,1-1.6-1.85,39.479,39.479,0,0,1-3.443-5.612c-.493-.958-.923-2.005-1.323-2.961-.184-.368-.184-.925-.492-1.109a11.542,11.542,0,0,0-1.475,2.094,17.481,17.481,0,0,0-.863,4.658c-.122.032-.06,0-.122.061-.983-.246-1.321-1.264-1.691-2.124a13.374,13.374,0,0,1-.277-8.236c.214-.646,1.139-2.681.769-3.3-.186-.588-.8-.924-1.138-1.389a12.217,12.217,0,0,1-1.106-1.973c-.739-1.726-1.11-3.639-1.907-5.365a16.449,16.449,0,0,0-1.537-2.374,15.272,15.272,0,0,1-1.693-2.4c-.152-.34-.368-.9-.123-1.264a.491.491,0,0,1,.432-.4c.4-.339,1.537.092,1.936.276A15.611,15.611,0,0,1,236.1,3.555c.431.309.892.895,1.445,1.05h.647c.984.214,2.091.06,3.015.339a19.652,19.652,0,0,1,4.428,2.127,27.332,27.332,0,0,1,9.592,10.546c.37.708.525,1.357.863,2.1.646,1.514,1.446,3.056,2.091,4.534a20.262,20.262,0,0,0,2.185,4.133c.46.646,2.306.986,3.136,1.325a21.8,21.8,0,0,1,2.122.862c1.045.646,2.089,1.388,3.074,2.1.491.37,2.029,1.14,2.122,1.758" transform="translate(-229.175 -0.001)" fill="#00758f" fill-rule="evenodd"/>
    <path id="Caminho_253" data-name="Caminho 253" d="M262.143,26.8a4.913,4.913,0,0,0-1.261.155v.062h.06a10.428,10.428,0,0,0,.984,1.265c.247.494.463.985.709,1.479.03-.03.06-.063.06-.063a1.731,1.731,0,0,0,.649-1.541,7.054,7.054,0,0,1-.37-.648c-.184-.307-.584-.462-.831-.709" transform="translate(-251.863 -19.174)" fill="#00758f" fill-rule="evenodd"/>
  </g>
</svg>
